<svg width="26" height="39" viewBox="0 0 26 39" fill="none" xmlns="http://www.w3.org/2000/svg">
<circle cx="13" cy="13" r="13" fill="white"/>
<circle cx="13" cy="13" r="12" fill="#333333"/>
<path d="M11 13C11 11.8954 11.8954 11 13 11V11C14.1046 11 15 11.8954 15 13V21H11V13Z" fill="white"/>
<path d="M12 13C12 12.4477 12.4477 12 13 12V12C13.5523 12 14 12.4477 14 13V21H12V13Z" fill="#333333"/>
<circle cx="13" cy="20" r="3" fill="white"/>
<path fill-rule="evenodd" clip-rule="evenodd" d="M15.5 21.5C15.5 21.625 15.5001 21.75 15.5002 22H15.4999L17.9999 34.6172H18V35.1172C18 36.774 15.7614 38.1172 13 38.1172C10.2386 38.1172 8 36.774 8 35.1172V34.6172L10.4999 22H10.5V21H15.5002C15.5001 21.25 15.5 21.375 15.5 21.5Z" fill="white"/>
<path fill-rule="evenodd" clip-rule="evenodd" d="M11.211 22.5256L9.10403 34.0483C9.03598 34.231 9 34.4215 9 34.6172C9 35.9979 10.7909 37.1172 13 37.1172C15.2091 37.1172 17 35.9979 17 34.6172C17 34.4215 16.964 34.231 16.896 34.0483L14.789 22.5256C14.2895 22.8973 13.6704 23.1172 13 23.1172C12.3296 23.1172 11.7105 22.8973 11.211 22.5256Z" fill="#333333"/>
<circle cx="13" cy="20" r="2" fill="#333333"/>
</svg>
