<?xml version="1.0" encoding="utf-8"?>
<!-- Generator: Adobe Illustrator 16.0.0, SVG Export Plug-In . SVG Version: 6.00 Build 0)  -->
<!DOCTYPE svg PUBLIC "-//W3C//DTD SVG 1.1//EN" "http://www.w3.org/Graphics/SVG/1.1/DTD/svg11.dtd">
<svg version="1.1" id="Layer_1" xmlns="http://www.w3.org/2000/svg" xmlns:xlink="http://www.w3.org/1999/xlink" x="0px" y="0px"
	 width="350px" height="350px" viewBox="0 0 350 350" enable-background="new 0 0 350 350" xml:space="preserve">
<g>
	<g>
		<g>
			<path d="M286.756,253.949c0.525-0.92,1.404-2.014,2.693-3.228c1.262-1.234,3.008-2.536,5.464-3.817
				c6.057-3.509,9.792-1.392,11.315-2.509c1.727-1.294,1.473-2.927,0.333-4.048c-2.031-1.987-6.009-2.482-7.295-4.041
				c-0.655-0.769-0.516-2.264-0.044-3.837c0.505-1.56,1.524-3.121,2.929-3.942c0.644,0.222,1.317,0.35,1.984,0.368
				c1.315,1.799,3.811,2.92,6.091,2.56c2.329,0.501,4.802-0.354,5.9-3.174c0.142-0.365,0.237-0.722,0.303-1.069
				c0.062-0.227,0.112-0.449,0.144-0.668l4.413,1.012c0,0,0.517,2.502,0.054,6.354c-0.185,1.943-0.844,4.126-1.824,6.492
				c-0.949,2.379-2.562,4.785-4.677,7.11c-1.255,1.401-0.197,3.038,0.518,5.591c0.708,2.535,1.154,6.09-1.846,10.823
				c-0.236,0.384,0.727,1.054,0.999,1.38c0.844,1.006,3.091,4.112,1.921,5.113c-2.19,1.902-3.594-1.215-4.518-1.813
				c-0.769-0.498-2.377,0.09-0.772,3.19c1.321,2.576,1.163,3.776,0.6,4.248c-0.591,0.458-1.583,0.204-1.968-0.02
				c-1.337-0.795-2.642,5.473-6.296,1.816c-0.435-0.432-1.464,0.223-2.371,0.277c-0.938,0.036-1.627-0.445-1.557-3.138
				c0.077-2.726-3.685-7.206-2.848-1.858c0.575,4.27-1.446,4.397-4.945,2.076c-2.411-1.577-5.385-4.149-6.785-7.663
				c-0.705-1.757-0.991-3.715-0.757-5.991C284.154,259.271,285.127,256.85,286.756,253.949z M305.715,235.04
				c0.645-0.646,0.598-1.702-0.114-2.349c-0.709-0.646-1.807-0.651-2.444-0.025c-0.639,0.625-0.579,1.66,0.125,2.325
				C303.982,235.655,305.07,235.686,305.715,235.04z M311.894,243.565c2.512,1.225,7.735-11.304,4.408-12.649
				C314.003,229.993,308.378,241.842,311.894,243.565z M298.683,252.037c0.548-0.127,0.676-0.277,0.96-0.537
				c0.462-0.433,0.453-1.284,0.974-1.612c0.794-0.485,2.046,1.636,2.858,1.839c1.624,0.393,2.017-0.825,2.717-0.894
				c1.471-0.151,2.03,1.768,1.359,2.858c-0.453,0.754-0.204,1.163,0.263,1.59c0.536,0.49,1.553-0.307,2.132,0.277
				c0.54,0.538,0.317,1.185-0.447,1.85c-0.763,0.66,1.678,2.733,2.563,0.048c0,0,0.126-0.603,0.089-1.52
				c-0.037-0.915-0.231-2.137-0.858-3.359c-0.87-1.707-2.808-3.637-5.348-4.461c-1.269-0.415-2.685-0.561-4.18-0.285
				c-1.513,0.265-3.021,0.997-4.727,2.202C296.381,250.51,296.536,252.528,298.683,252.037z M304.149,256.787
				c0.594-0.457,0.7-1.311,0.233-1.895c-0.467-0.585-1.323-0.688-1.91-0.241c-0.586,0.448-0.684,1.287-0.226,1.882
				C302.706,257.126,303.557,257.245,304.149,256.787z M303.548,271.693c-0.771,0.502-1.017,1.512-0.557,2.267
				c0.459,0.756,1.456,0.96,2.235,0.443c0.779-0.514,1.039-1.542,0.568-2.285C305.328,271.377,304.317,271.191,303.548,271.693z
				 M293.956,267.385c0.068-1.415,2.125-0.457,2.684-0.113c0.787,0.49,2.761,2.122,3.216,0.973c0.332-0.845,0.051-0.403-2.639-2.9
				c-2.26-2.09-2.853-3.06-2.335-4.821c0.69-2.386,4.808-1.818,4.237,0.367c-0.717,2.725,1.192,3.393,1.192,3.393
				c4.287,2.708,8.594-0.639,8.301-2.102c-0.113-0.688-0.708-1.238-1.125-1.396c-1.365-0.524-2.163-0.373-4.063,0.784
				c-0.414,0.245-1.577,0.095-1.297-1.689c0.077-0.642-0.441-1.441-0.88-1.574c-0.612-0.179-1.777,0.685-2.679-0.158
				c-1.447-1.355-0.453-2.455-0.81-2.998c-0.663-0.992-1.448-0.489-1.608,0.03c-0.213,0.762,0.037,2.278-0.477,2.757
				c-2.103,1.862-1.882-2.901-3.548-1.03c-0.958,1.054-1.126,2.882-1.098,4.676c0.021,1.782,0.331,3.596,0.554,4.637
				C291.984,268.109,293.831,269.596,293.956,267.385z"/>
			<path d="M298.908,235.641c-0.236-1.564,0.229-3.387,1.041-4.813c0.815-1.423,1.978-2.465,2.982-2.479
				c2.036-0.046,4.999,2.623,7.84,2.856c1.585,0.12,2.962-0.769,2.772-2.934c-0.085-0.961-1.135-1.766-2.3-3.207
				c-1.133-1.427-2.517-3.541-3.245-6.983c-0.522-2.656-0.755-4.851-0.692-6.626c0.047-1.777,0.444-3.119,0.729-4.137
				c0.489-1.586,1.076-2.948,1.739-4.124c0.332-0.588,0.683-1.129,1.05-1.628c0.337-0.505,0.692-0.967,1.063-1.389
				c1.483-1.688,3.22-2.742,5.027-3.358c3.615-1.238,7.505-0.675,10.268,0.114c4.051,1.126,5.189,2.721,1.604,5.085
				c-4.499,2.888,1.321,2.789,3.278,0.937c3.856-3.691,3.533,0.98,4.74,1.094c2.571,0.18,2.921,1.547,2.811,2.935
				c-0.155,1.378-0.802,2.749-0.062,3.003c0.845,0.264,3.315,2.387-2.262,3.812c-3.333,0.833-2.798,2.414-1.911,2.67
				c1.058,0.305,4.375-0.668,4.306,2.214c-0.04,1.525-3.778,1.887-5.102,1.908c-0.423,0.009-1.56-0.279-1.687,0.152
				c-0.195,0.67-0.41,1.289-0.64,1.862c-0.254,0.564-0.528,1.082-0.81,1.559c-0.563,0.951-1.17,1.734-1.794,2.384
				c-1.249,1.3-2.562,2.069-3.777,2.617c-2.499,1.072-4.514,1.293-4.695,3.176l-1.117,0.257c-1.295-1.248-3.185-1.887-4.943-1.713
				c-0.879,0.088-1.726,0.379-2.452,0.906c-0.73,0.526-1.405,1.263-1.855,2.292c-0.033,0.089-0.065,0.172-0.098,0.258
				c-0.818-1.936-2.896-3.23-5.016-3.491c-2.122-0.255-4.271,0.486-5.281,2.77c-0.286,0.687-0.462,1.326-0.488,1.953
				L298.908,235.641z M333.8,206.458c-0.879,0.146-1.503,0.988-1.398,1.895c0.104,0.905,0.896,1.544,1.77,1.413
				c0.878-0.131,1.507-0.994,1.405-1.916C335.476,206.928,334.68,206.311,333.8,206.458z M328.545,218.411
				c1.197-0.765,1.123-6.151-3.831-7.637c0,0-0.441-0.256-1.075-0.214c-0.648,0.038-1.427,0.388-2.256,1.54
				c-0.67,0.932-1.771,0.705-2.529-0.004c-0.749-0.709-1.172-1.891-0.541-2.958c0.952-1.555,2.063-1.746,5.116-1.411
				c3.649,0.395,3.494,0.895,3.934,0.095c0.601-1.091-1.929-1.513-2.812-1.786c-0.624-0.195-2.682-1.118-1.628-2.092
				c1.545-1.551-0.789-1.973-2.45-1.029c-1.854,1.061-6.39,3.713-6.666,6.523c-0.384,2.469,3.179-0.794,3.074,1.995
				c-0.031,0.701-1.415,1.486-1.812,2.157c-0.276,0.465-0.125,1.393,1.05,1.239c0.643-0.088,0.772-1.572,2.778-1.36
				c1.218,0.126,1.322,1.569,1.878,1.92c0.39,0.245,1.326,0.109,1.75-0.373c1.205-1.37,2.068-0.594,2.143-0.125
				c0.351,2.188,0.814,2.905,2.098,3.59C327.158,218.692,327.962,218.78,328.545,218.411z M318.887,218.73
				c0.026,0.729,0.656,1.305,1.411,1.276c0.753-0.029,1.362-0.659,1.289-1.415c-0.057-0.752-0.711-1.318-1.455-1.274
				C319.384,217.363,318.84,217.994,318.887,218.73z M323.087,226.743c2.643-0.666,4.13-2.64,4.131-2.64
				c1.521-2.405-1.657-2.892-1.683-1.892c-0.027,1.004-0.391,1.59-1.137,1.54c-0.83-0.058-0.885-1.344-1.6-1.424
				c-0.628-0.073-1.126-0.001-1.375,0.844c-0.36,1.229-2.151,2.074-3.018,0.859c-0.414-0.575,0.224-1.678-1.146-2.649
				c-0.69-0.482-3.091-0.028-3.26-0.95c-0.117-0.616,0.582-1.151,0.615-1.781c0.021-0.382,0.057-0.574-0.194-1.068
				c-1.029-1.94-2.648-0.73-2.617,0.065C312.268,225.846,319.391,227.724,323.087,226.743z"/>
			<path d="M226.392,301.604c1.926-0.903,5.187-1.997,10.662-1.558c3.499,0.189,5.771,1.211,7.382,2.189
				c1.606,0.963,2.542,1.861,3.505,1.805c2.161-0.143,2.836-1.645,2.484-3.2c-0.633-2.764-3.72-5.337-3.955-7.339
				c-0.11-0.957,0.752-2.246,2.023-3.281c1.27-1.039,3.014-1.744,4.607-1.726c0.421,0.532,0.915,0.998,1.461,1.366
				c0.16,2.267,1.653,4.559,3.74,5.447c1.675,1.661,4.239,2.312,6.705,0.556c0.316-0.231,0.602-0.463,0.831-0.737
				c0.171-0.164,0.327-0.332,0.469-0.504l3.15,3.223c0,0-0.218,0.612-0.734,1.61c-0.545,0.961-1.404,2.293-2.65,3.771
				c-0.623,0.738-1.343,1.514-2.165,2.293c-0.848,0.743-1.808,1.479-2.871,2.189c-1.063,0.709-2.236,1.389-3.516,2.005
				c-1.313,0.561-2.736,1.054-4.262,1.445c-1.839,0.455-1.779,2.501-2.57,5.004c-0.389,1.264-0.976,2.67-2.09,4.094
				c-0.56,0.706-1.239,1.438-2.11,2.116c-0.88,0.657-1.935,1.296-3.196,1.894c-0.406,0.193,0.044,1.275,0.097,1.696
				c0.175,1.317,0.366,5.083-1.129,5.36c-2.87,0.42-2.373-2.962-2.826-3.96c-0.38-0.834-2.055-1.214-2.377,2.253
				c-0.589,5.76-3.039,3.649-3.425,2.846c-0.697-1.392-5.188,3.152-6.293-1.893c-0.287-1.181-4.842-0.105-1.767-4.528
				c1.539-2.242,0.787-8.037-1.398-3.103c-0.446,0.982-0.895,1.669-1.341,2.08c-0.453,0.388-0.9,0.509-1.342,0.389
				c-0.884-0.24-1.737-1.442-2.596-3.37c-1.182-2.631-2.299-6.402-1.58-10.104c0.364-1.825,1.149-3.714,2.585-5.471
				c0.72-0.875,1.604-1.712,2.686-2.494C223.664,303.174,224.901,302.332,226.392,301.604z M252.569,295.895
				c0.896-0.188,1.434-1.096,1.187-2.021c-0.245-0.925-1.168-1.525-2.05-1.351c-0.88,0.175-1.396,1.069-1.165,2.007
				S251.673,296.081,252.569,295.895z M253.172,306.424c0.347,0.555,1.32,0.54,2.555,0.136c1.209-0.446,2.676-1.283,4.039-2.276
				c0.682-0.496,1.337-1.032,1.921-1.577c0.572-0.561,1.058-1.154,1.439-1.711c0.759-1.12,1.062-2.145,0.587-2.843
				c-0.378-0.555-1.353-0.497-2.554-0.054c-0.603,0.219-1.254,0.547-1.935,0.924c-0.692,0.357-1.4,0.784-2.08,1.255
				c-1.357,0.941-2.602,2.062-3.378,3.167C252.964,304.503,252.63,305.557,253.172,306.424z M237.474,306.432
				c0.532,0.19,0.721,0.134,1.102,0.071c0.636-0.089,1.046-0.895,1.674-0.865c0.934,0.023,0.839,2.477,1.415,3.088
				c1.158,1.21,2.149,0.404,2.777,0.728c1.324,0.672,0.754,2.579-0.403,3.129c-0.795,0.376-0.793,0.883-0.63,1.494
				c0.186,0.696,1.46,0.553,1.639,1.367c0.154,0.726-0.358,1.199-1.357,1.351c-1.009,0.122-0.046,3.235,2.117,1.393
				c0,0,1.724-1.78,1.991-4.508c0.419-3.829-2.458-10.576-10.626-9.817C236.359,303.904,235.396,305.678,237.474,306.432z
				 M239.514,313.373c0.748-0.062,1.301-0.719,1.224-1.459c-0.077-0.742-0.744-1.294-1.481-1.238
				c-0.736,0.058-1.273,0.706-1.209,1.453C238.112,312.874,238.766,313.436,239.514,313.373z M230.976,325.617
				c-0.921,0.003-1.674,0.716-1.695,1.597c-0.021,0.883,0.71,1.595,1.646,1.585c0.94,0.002,1.707-0.737,1.702-1.641
				C232.629,326.265,231.891,325.594,230.976,325.617z M225.214,316.804c0.823-1.146,2.04,0.771,2.324,1.361
				c0.398,0.832,1.188,3.291,2.183,2.546c0.723-0.564,0.254-0.33-0.668-3.89c-0.777-2.977-0.752-4.111,0.638-5.305
				c1.874-1.623,5.041,1.085,3.377,2.606c-2.079,1.892-0.829,3.488-0.829,3.488c1.093,2.298,2.966,3.327,4.669,3.611
				c1.703,0.289,3.161-0.277,3.451-0.914c0.277-0.637,0.072-1.421-0.192-1.779c-0.862-1.165-1.636-1.514-3.841-1.52
				c-0.475-0.003-1.365-0.736-0.192-2.145c0.412-0.497,0.408-1.447,0.11-1.797c-0.427-0.496-1.863-0.373-2.165-1.562
				c-0.503-1.957,0.938-2.32,0.931-2.973c-0.022-1.19-0.957-1.194-1.374-0.848c-0.599,0.509-1.17,2.002-1.876,2.093
				c-2.781,0.419-0.018-3.45-2.437-2.787c-1.373,0.375-2.521,1.774-3.445,3.348c-0.935,1.535-1.662,3.198-2.034,4.197
				C223.159,316.341,223.913,318.588,225.214,316.804z"/>
			<path d="M246.529,292.75c0.627-1.479,1.999-2.771,3.475-3.506c0.734-0.372,1.488-0.617,2.166-0.702
				c0.667-0.102,1.25-0.056,1.673,0.206c1.726,1.043,2.791,4.916,5.047,6.637c1.271,0.963,2.919,0.972,3.944-0.936
				c0.447-0.855,0.024-2.068-0.198-3.943c-0.224-1.869-0.213-4.359,1.065-7.621c1.866-5.17,4.209-7.689,5.832-9.068
				c1.279-1.058,2.574-1.82,3.726-2.491c1.163-0.659,2.294-1.115,3.39-1.407s2.156-0.419,3.177-0.414
				c0.998-0.016,1.954,0.1,2.871,0.322c3.671,0.883,6.639,3.463,8.543,5.628c1.398,1.581,2.137,2.855,1.988,3.757
				c-0.147,0.9-1.174,1.443-3.352,1.424c-5.401-0.06-0.438,3.027,2.244,2.559c5.304-0.96,2.434,2.732,3.389,3.483
				c4.134,3.098-1.867,5.292-0.89,6.503c0.585,0.698,1.485,3.794-4.001,1.942c-3.292-1.144-3.64,0.535-3.038,1.227
				c0.723,0.828,4.002,1.771,2.439,4.216c-0.867,1.25-4.22-0.488-5.347-1.191c-0.361-0.223-1.16-1.08-1.504-0.79
				c-1.067,0.899-2.087,1.589-3.053,2.11c-0.967,0.521-1.928,0.815-2.804,1.024c-1.764,0.401-3.297,0.322-4.617,0.122
				c-2.626-0.379-4.465-1.319-5.646,0.155l-1.081-0.395c-0.411-1.744-1.654-3.304-3.233-4.116c-1.595-0.828-3.457-0.838-5.339,0.383
				c-0.078,0.056-0.15,0.107-0.225,0.161c0.372-2.051-0.693-4.29-2.324-5.639c-1.651-1.365-3.869-1.915-5.972-0.56
				c-0.625,0.402-1.094,0.888-1.445,1.419L246.529,292.75z M291.648,287.05c-0.812-0.347-1.773,0.043-2.159,0.878
				c-0.381,0.84-0.091,1.776,0.727,2.151c0.822,0.381,1.795-0.029,2.191-0.876C292.806,288.356,292.461,287.397,291.648,287.05z
				 M280.78,294.275c0.698-0.003,1.829-1.083,2.256-2.768c0.448-1.666,0.288-3.796-1.352-5.742c0,0.001-0.934-1.798-3.521-0.691
				c-2.076,0.883-3.229-3.118-0.972-4.149c1.664-0.77,2.708-0.322,5.097,1.617c2.857,2.314,2.449,2.644,3.264,2.221
				c1.073-0.613-0.824-2.338-1.421-3.049c-0.42-0.504-1.66-2.404-0.274-2.678c2.166-0.441,0.434-2.059-1.493-2.186
				c-1.061-0.072-2.892-0.114-4.659,0.118c-1.817,0.188-3.568,0.652-4.48,1.746c-1.608,1.924,3.063,1.015,1.526,3.369
				c-0.193,0.294-0.683,0.428-1.207,0.532c-0.54,0.088-1.115,0.146-1.47,0.316c-0.489,0.235-0.874,1.087,0.201,1.601
				c0.591,0.277,1.521-0.884,3.094,0.385c0.957,0.767,0.25,2.022,0.524,2.615c0.194,0.417,1.059,0.813,1.682,0.645
				c1.768-0.485,2.052,0.612,1.874,1.063c-0.909,2.008-0.913,2.855-0.208,4.122C279.456,293.753,280.086,294.264,280.78,294.275z
				 M272.465,289.283c-0.356,0.647-0.131,1.481,0.514,1.859c0.643,0.376,1.47,0.146,1.836-0.508c0.367-0.654,0.128-1.481-0.524-1.85
				C273.637,288.417,272.823,288.637,272.465,289.283z M271.667,298.304c2.595,0.886,4.93,0.055,4.93,0.055
				c2.562-1.22,0.135-3.373-0.397-2.51c-0.539,0.861-1.192,1.12-1.785,0.683c-0.669-0.5-0.01-1.6-0.567-2.056
				c-0.489-0.402-0.949-0.614-1.622-0.047c-0.979,0.826-2.953,0.554-3.016-0.929c-0.035-0.705,1.109-1.273,0.488-2.827
				c-0.318-0.777-2.593-1.707-2.228-2.565c0.239-0.576,1.13-0.633,1.477-1.172c0.215-0.32,0.345-0.469,0.392-1.031
				c0.176-2.202-1.84-2.061-2.217-1.339C263.057,291.695,268.003,297.095,271.667,298.304z"/>
			<path d="M149.805,309.044c1.06,0.087,2.436,0.358,4.077,1.05c0.824,0.33,1.705,0.833,2.669,1.35
				c0.962,0.53,1.992,1.191,3.091,2.016c1.417,1.053,2.463,2.142,3.261,3.115c0.799,0.963,1.343,1.889,1.757,2.722
				c0.829,1.666,1.125,2.958,1.964,3.441c1.891,1.088,3.271,0.221,3.821-1.32c0.97-2.696-0.229-6.484,0.66-8.323
				c0.429-0.902,1.852-1.516,3.479-1.657c0.815-0.075,1.683-0.013,2.514,0.153c0.83,0.14,1.624,0.421,2.288,0.87
				c0.064,0.677,0.227,1.339,0.485,1.947c-1.094,1.976-1.082,4.711,0.188,6.604c0.505,2.291,2.312,4.312,5.333,4.124
				c0.39-0.033,0.753-0.104,1.096-0.197c0.231-0.043,0.454-0.097,0.667-0.164l0.902,4.422c0,0-0.516,0.391-1.492,0.94
				c-0.488,0.271-1.091,0.597-1.805,0.907c-0.715,0.289-1.539,0.585-2.464,0.856s-1.95,0.521-3.065,0.717
				c-1.114,0.2-2.318,0.356-3.598,0.333c-1.279,0.001-2.632-0.082-4.042-0.278c-0.705-0.099-1.423-0.225-2.152-0.382
				c-0.729-0.168-1.467-0.413-2.213-0.669c-3.55-1.311-4.299,6.903-15.478,5.635c-0.444-0.067-0.652,1.087-0.834,1.467
				c-0.566,1.193-2.437,4.436-3.837,3.829c-2.644-1.152-0.394-3.755-0.233-4.845c0.132-0.905-1.075-2.098-3.226,0.68
				c-3.6,4.486-4.507,1.332-4.399,0.457c0.165-1.545-6.093-0.022-4.282-4.927c0.395-1.145-3.985-2.824,0.962-4.771
				c1.245-0.479,2.505-2.105,2.875-3.186c0.371-1.102-0.117-1.598-2.371-0.188c-3.629,2.26-4.609,0.551-3.956-3.608
				c0.425-2.845,1.521-6.62,4.137-9.383c1.305-1.382,2.979-2.514,5.119-3.147C143.877,308.89,146.507,308.66,149.805,309.044z
				 M174.931,318.421c0.854,0.34,1.798-0.112,2.092-1.025c0.295-0.918-0.154-1.904-0.988-2.258
				c-0.834-0.344-1.752,0.114-2.067,1.022C173.653,317.066,174.076,318.08,174.931,318.421z M169.723,327.615
				c-0.028,1.312,3.329,1.921,6.702,1.779c3.375-0.244,6.692-1.352,6.642-3.023c-0.043-1.357-3.377-1.928-6.67-1.764
				C173.103,324.667,169.765,325.576,169.723,327.615z M156.528,319.073c0.345,0.438,0.536,0.487,0.892,0.629
				c0.587,0.236,1.364-0.171,1.876,0.195c0.77,0.544-0.638,2.53-0.486,3.36c0.316,1.654,1.583,1.541,1.936,2.161
				c0.746,1.299-0.765,2.566-2.032,2.374c-0.871-0.131-1.143,0.29-1.336,0.891c-0.222,0.684,0.924,1.276,0.633,2.054
				c-0.264,0.697-0.947,0.78-1.871,0.381c-0.919-0.399-1.792,2.692,1.023,2.326c0,0,2.408-0.517,4.108-2.634
				c1.194-1.524,2.149-4.105,1.845-6.746c-0.303-2.607-1.814-5.382-5.443-7.338C156.961,316.344,155.182,317.359,156.528,319.073z
				 M154.476,326.044c0.665,0.336,1.487,0.061,1.825-0.611c0.339-0.673,0.076-1.487-0.577-1.82c-0.652-0.335-1.46-0.049-1.81,0.605
				C153.568,324.873,153.81,325.719,154.476,326.044z M140.687,331.653c-0.78-0.479-1.803-0.268-2.299,0.47
				c-0.496,0.738-0.264,1.723,0.533,2.202c0.795,0.481,1.84,0.274,2.32-0.468C141.721,333.119,141.467,332.13,140.687,331.653z
				 M140.593,321.175c1.318-0.546,1.308,1.715,1.228,2.364c-0.116,0.919-0.776,3.395,0.462,3.311
				c0.909-0.061,0.39-0.132,1.538-3.614c0.954-2.916,1.585-3.84,3.393-4.054c2.468-0.41,3.673,3.534,1.44,3.966
				c-2.785,0.531-2.593,2.535-2.593,2.535c-0.676,5.036,4.182,7.401,5.371,6.636c0.576-0.374,0.829-1.141,0.799-1.588
				c-0.092-1.455-0.55-2.178-2.395-3.422c-0.396-0.266-0.746-1.378,0.998-1.893c0.613-0.181,1.124-0.974,1.062-1.431
				c-0.089-0.653-1.359-1.359-0.97-2.518c0.636-1.911,2.04-1.4,2.386-1.947c0.625-1.001-0.156-1.531-0.693-1.478
				c-0.775,0.077-2.062,1.001-2.712,0.732c-2.581-1.083,1.86-2.944-0.547-3.631c-1.375-0.354-3.077,0.107-4.701,0.903
				c-1.618,0.786-3.142,1.844-3.997,2.491C139.105,319.713,138.525,322.012,140.593,321.175z"/>
			<path d="M171.563,312.479c1.33-0.939,3.182-1.211,4.818-1.013c1.634,0.164,3.062,0.705,3.49,1.616
				c0.883,1.822-0.321,5.638,0.642,8.316c0.546,1.506,1.927,2.423,3.822,1.4c1.644-0.996,1.278-5.183,6.984-9.275
				c2.187-1.692,4.097-2.73,5.744-3.358c1.633-0.708,2.998-1.015,4.052-1.117c0.825-0.083,1.61-0.121,2.357-0.12
				c0.746-0.005,1.443-0.025,2.112,0.023c1.336,0.083,2.535,0.317,3.615,0.671c2.17,0.741,3.823,1.786,5.132,3.172
				c2.616,2.735,3.723,6.509,4.155,9.356c0.662,4.151-0.301,5.916-3.939,3.643c-4.52-2.99-2.007,2.296,0.507,3.361
				c4.966,1.988,0.581,3.646,0.972,4.761c1.809,4.844-4.44,3.416-4.273,4.962c0.111,0.881-0.785,4.071-4.415-0.504
				c-2.154-2.752-3.358-1.537-3.226-0.631c0.161,1.089,2.415,3.665-0.229,4.86c-1.396,0.654-3.283-2.66-3.851-3.858
				c-0.184-0.385-0.392-1.539-0.839-1.485c-2.777,0.32-4.924,0.112-6.625-0.518c-1.703-0.633-2.95-1.541-3.953-2.433
				c-2.008-1.809-3.035-3.445-4.828-2.896l-0.695-0.926c1.177-3.358-0.735-7.949-5.18-7.794c-0.095,0.009-0.184,0.017-0.275,0.025
				c1.423-1.586,1.742-4.024,1.104-6.045c-0.319-1.01-0.876-1.916-1.659-2.557c-0.784-0.668-1.795-1.113-3.048-1.13
				c-0.744-0.012-1.4,0.13-1.983,0.379L171.563,312.479z M212.57,332.129c-0.496-0.732-1.518-0.93-2.295-0.439
				c-0.777,0.489-1.028,1.484-0.548,2.219c0.48,0.737,1.524,0.931,2.316,0.437C212.838,333.852,213.067,332.861,212.57,332.129z
				 M199.519,332.354c0.296,0.196,0.827,0.221,1.441,0.031c0.612-0.203,1.311-0.597,1.949-1.171c1.28-1.149,2.299-3.018,1.972-5.54
				c-0.001,0,0.186-2.014-2.592-2.5c-2.226-0.396-1.029-4.372,1.429-4.002c1.816,0.262,2.457,1.225,3.413,4.122
				c1.151,3.475,0.635,3.554,1.541,3.602c1.235,0.066,0.571-2.407,0.452-3.327c-0.081-0.65-0.098-2.918,1.219-2.39
				c2.063,0.809,1.479-1.488-0.076-2.643c-0.854-0.637-2.375-1.675-3.988-2.438c-1.612-0.738-3.351-1.377-4.705-0.939
				c-2.396,0.729,2.029,2.521-0.538,3.651c-0.648,0.276-1.929-0.617-2.703-0.697c-0.539-0.072-1.323,0.429-0.696,1.446
				c0.173,0.278,0.613,0.302,1.089,0.496c0.473,0.179,0.98,0.517,1.298,1.471c0.389,1.15-0.873,1.896-0.967,2.521
				c-0.062,0.446,0.453,1.273,1.063,1.436c1.739,0.488,1.393,1.608,0.998,1.881c-1.837,1.289-2.312,1.915-2.401,3.385
				C198.687,331.193,198.939,331.965,199.519,332.354z M195.223,323.631c-0.651,0.345-0.914,1.166-0.575,1.835
				c0.337,0.667,1.157,0.929,1.82,0.581c0.663-0.347,0.909-1.168,0.561-1.833C196.678,323.549,195.874,323.287,195.223,323.631z
				 M189.669,330.793c0.853,1.081,1.882,1.77,2.699,2.188c0.41,0.214,0.765,0.348,1.016,0.42c0.251,0.078,0.401,0.107,0.401,0.107
				c2.812,0.32,1.94-2.763,1.022-2.347c-0.923,0.415-1.604,0.344-1.867-0.352c-0.291-0.773,0.854-1.387,0.633-2.067
				c-0.193-0.602-0.464-1.01-1.334-0.877c-1.271,0.151-2.785-1.161-2.034-2.432c0.353-0.613,1.625-0.438,1.941-2.104
				c0.153-0.825-1.252-2.814-0.483-3.358c0.511-0.376,1.285,0.019,1.87-0.229c0.354-0.149,0.544-0.202,0.888-0.646
				c1.34-1.742-0.433-2.729-1.139-2.332c-1.807,1.038-3.094,2.158-3.967,3.394c-0.872,1.241-1.33,2.586-1.48,3.911
				C187.529,326.719,188.479,329.287,189.669,330.793z"/>
			<path d="M81.452,273.942c0.839,0.647,1.781,1.692,2.818,3.122c1.044,1.424,2.064,3.363,3.003,5.953
				c2.599,6.514-0.034,9.909,0.868,11.56c1.029,1.9,2.68,1.887,3.951,0.922c2.256-1.725,3.317-5.594,5.043-6.642
				c1.65-0.953,6.083,0.945,7.284,3.979c-0.313,0.607-0.531,1.248-0.64,1.896c-1.982,1.065-3.448,3.373-3.406,5.662
				c-0.816,2.21-0.34,4.805,2.291,6.304c0.341,0.194,0.678,0.341,1.012,0.457c0.214,0.095,0.427,0.178,0.639,0.241l-1.622,4.201
				c0,0-0.656,0.071-1.753-0.032c-1.103-0.092-2.676-0.313-4.543-0.826c-1.888-0.475-3.985-1.387-6.166-2.729
				c-1.082-0.683-2.219-1.419-3.273-2.383c-1.058-0.959-2.1-2.044-3.092-3.266c-0.596-0.733-1.343-0.885-2.278-0.803
				c-0.923,0.065-2.019,0.349-3.334,0.522c-2.598,0.323-6.198,0.28-10.444-3.374c-0.345-0.288-1.144,0.568-1.506,0.792
				c-1.122,0.696-4.497,2.458-5.34,1.18c-1.566-2.441,1.716-3.385,2.439-4.213c0.602-0.69,0.251-2.368-3.043-1.223
				c-2.735,0.94-3.899,0.612-4.286-0.014c-0.386-0.633,0.02-1.592,0.292-1.937c0.978-1.21-5.033-3.397-0.896-6.494
				c0.486-0.366-0.005-1.486,0.059-2.383c0.086-0.923,0.682-1.556,3.331-1.099c2.685,0.465,7.653-2.622,2.245-2.557
				c-4.319-0.024-4.147-2.055-1.356-5.186c1.903-2.164,4.872-4.744,8.547-5.629c1.832-0.441,3.826-0.462,6.042,0.099
				C76.542,270.617,78.818,271.908,81.452,273.942z M97.473,295.412c0.543,0.732,1.595,0.842,2.335,0.23
				c0.741-0.607,0.903-1.694,0.378-2.42c-0.525-0.725-1.556-0.817-2.314-0.218C97.114,293.604,96.929,294.677,97.473,295.412z
				 M88.145,300.312c-1.588,2.338,10.102,9.239,11.892,6.17C101.298,304.31,90.337,297.106,88.145,300.312z M81.646,286.025
				c0.047,0.562,0.177,0.71,0.393,1.029c0.354,0.53,1.216,0.619,1.466,1.184c0.367,0.856-1.91,1.789-2.228,2.565
				c-0.621,1.553,0.526,2.118,0.492,2.822c-0.062,1.48-2.037,1.755-3.019,0.934c-0.673-0.567-1.139-0.349-1.621,0.044
				c-0.564,0.465,0.101,1.557-0.569,2.059c-0.604,0.45-1.236,0.166-1.775-0.696c-0.541-0.854-2.949,1.277-0.409,2.525
				c0,0,2.34,0.825,4.938-0.064c1.812-0.615,3.997-2.255,5.177-4.652c0.592-1.197,0.939-2.579,0.882-4.101
				c-0.029-0.761-0.158-1.557-0.409-2.381c-0.256-0.819-0.626-1.678-1.101-2.608C83.486,283.965,81.468,283.827,81.646,286.025z
				 M76.167,290.757c0.367,0.653,1.195,0.882,1.838,0.505c0.646-0.378,0.871-1.212,0.513-1.857
				c-0.359-0.645-1.174-0.863-1.828-0.494C76.038,289.278,75.798,290.104,76.167,290.757z M61.497,288.042
				c-0.387-0.834-1.351-1.222-2.163-0.875c-0.813,0.348-1.157,1.307-0.758,2.151c0.398,0.844,1.374,1.251,2.181,0.887
				C61.566,289.84,61.877,288.883,61.497,288.042z M67.127,279.158c1.388,0.271,0.148,2.17-0.271,2.673
				c-0.598,0.711-2.494,2.434-1.421,3.048c0.79,0.447,0.4,0.101,3.254-2.208c2.39-1.939,3.435-2.388,5.101-1.621
				c2.261,1.026,1.111,5.023-0.968,4.146c-2.591-1.103-3.525,0.694-3.525,0.694c-3.301,3.869-0.585,8.589,0.9,8.512
				c0.695-0.012,1.326-0.523,1.541-0.913c0.709-1.271,0.689-2.101-0.202-4.128c-0.178-0.449,0.121-1.563,1.865-1.052
				c0.625,0.167,1.489-0.229,1.683-0.646c0.273-0.592-0.434-1.846,0.529-2.62c1.562-1.254,2.502-0.107,3.091-0.382
				c1.076-0.515,0.69-1.364,0.2-1.599c-0.722-0.32-2.276-0.27-2.667-0.857c-1.542-2.35,3.138-1.447,1.525-3.367
				c-0.91-1.096-2.68-1.539-4.477-1.749c-1.766-0.234-3.604-0.188-4.664-0.116C66.69,277.102,64.958,278.718,67.127,279.158z"/>
			<path d="M97.845,288.599c1.577-0.001,3.341,0.681,4.62,1.715c1.293,1.01,2.139,2.341,2.029,3.303
				c-0.232,1.997-3.318,4.581-3.945,7.342c-0.348,1.554,0.332,3.049,2.497,3.18c0.961,0.058,1.907-0.864,3.499-1.807
				c1.59-0.948,3.878-2.011,7.378-2.217c0.68-0.042,1.322-0.06,1.931-0.056c0.618-0.016,1.208-0.022,1.762-0.003
				c1.11,0.036,2.092,0.149,2.961,0.314c0.869,0.165,1.625,0.381,2.282,0.621c0.668,0.211,1.239,0.437,1.713,0.668
				c11.823,5.667,9.934,15.049,7.552,20.417c-0.852,1.931-1.707,3.151-2.587,3.386c-0.872,0.215-1.776-0.544-2.68-2.496
				c-2.211-4.895-2.942,0.892-1.39,3.111c3.101,4.376-1.47,3.354-1.753,4.534c-1.086,5.038-5.618,0.587-6.282,1.898
				c-0.38,0.798-2.832,2.931-3.444-2.812c-0.336-3.458-2.019-3.053-2.387-2.239c-0.45,0.996,0.037,4.43-2.803,3.938
				c-1.501-0.267-1.323-4.024-1.154-5.341c0.052-0.421,0.499-1.504,0.091-1.693c-2.555-1.136-4.186-2.601-5.288-4.032
				c-1.104-1.429-1.673-2.85-2.043-4.128c-0.732-2.573-0.636-4.647-2.477-5.091l-0.092-1.145c1.418-1.101,2.321-2.879,2.403-4.647
				c0.089-1.79-0.684-3.472-2.554-4.711c-0.083-0.047-0.16-0.091-0.24-0.136c4.036-1.065,6.365-7.452,2.196-10.101
				c-0.628-0.396-1.268-0.616-1.875-0.747L97.845,288.599z M121.753,327.288c-0.027-0.872-0.783-1.579-1.688-1.626
				c-0.909-0.032-1.653,0.656-1.648,1.544c0.003,0.889,0.768,1.642,1.692,1.679C121.047,328.888,121.778,328.168,121.753,327.288z
				 M110.661,320.391c0.286,0.648,1.771,1.154,3.449,0.919c1.694-0.268,3.578-1.334,4.662-3.63c0,0,1.247-1.604-0.846-3.471
				c-1.652-1.554,1.481-4.209,3.375-2.632c1.398,1.175,1.428,2.307,0.661,5.283c-0.91,3.56-1.382,3.33-0.655,3.887
				c0.991,0.759,1.768-1.687,2.164-2.522c0.28-0.583,1.484-2.485,2.318-1.363c1.312,1.765,2.059-0.484,1.366-2.274
				c-0.812-1.915-2.771-6.83-5.502-7.524c-2.427-0.637,0.358,3.194-2.431,2.802c-0.687-0.135-1.264-1.623-1.868-2.118
				c-0.419-0.343-1.356-0.331-1.374,0.856c-0.006,0.65,1.44,1.001,0.943,2.957c-0.298,1.188-1.738,1.078-2.165,1.576
				c-0.298,0.351-0.298,1.298,0.117,1.791c1.18,1.399,0.29,2.138-0.184,2.142c-2.211,0.023-2.985,0.377-3.845,1.547
				C110.583,318.974,110.38,319.759,110.661,320.391z M111.73,310.774c-0.742-0.045-1.402,0.497-1.48,1.247
				c-0.074,0.738,0.481,1.389,1.231,1.444c0.75,0.057,1.403-0.509,1.466-1.252C113.01,311.468,112.469,310.825,111.73,310.774z
				 M103.198,313.788c0.277,2.719,2.012,4.485,2.012,4.485c2.158,1.861,3.097-1.222,2.11-1.387
				c-0.987-0.177-1.514-0.624-1.358-1.355c0.176-0.814,1.455-0.679,1.637-1.376c0.162-0.61,0.163-1.116-0.636-1.486
				c-1.162-0.541-1.739-2.439-0.414-3.119c0.628-0.326,1.625,0.471,2.781-0.744c0.576-0.614,0.473-3.061,1.408-3.091
				c0.625-0.025,1.053,0.746,1.669,0.874c0.371,0.082,0.562,0.133,1.095-0.062c2.083-0.774,1.103-2.518,0.3-2.577
				C105.645,303.195,102.761,309.981,103.198,313.788z"/>
			<path d="M42.856,207.461c0.331,1.004,0.582,2.383,0.705,4.139c0.046,0.884,0.025,1.87-0.09,2.974
				c-0.113,1.103-0.343,2.329-0.587,3.654c-0.693,3.437-2.031,5.541-3.23,6.997c-1.158,1.443-2.2,2.25-2.276,3.209
				c-0.168,2.16,1.221,3.042,2.81,2.914c2.823-0.233,5.811-2.925,7.824-2.874c0.96,0.028,2.134,1.056,2.966,2.465
				c0.85,1.402,1.284,3.235,1.058,4.802c-0.587,0.342-1.119,0.765-1.561,1.253c-2.264-0.163-4.745,0.991-5.921,2.931
				c-1.882,1.423-2.892,3.871-1.506,6.562c0.176,0.351,0.382,0.656,0.62,0.924c0.138,0.191,0.281,0.371,0.433,0.534l-3.637,2.664
				c0,0-0.574-0.303-1.489-0.956c-0.89-0.666-2.073-1.713-3.361-3.155c-0.642-0.722-1.306-1.545-1.96-2.47
				c-0.633-0.936-1.209-1.997-1.765-3.149c-0.55-1.155-1.055-2.413-1.481-3.768c-0.389-1.371-0.657-2.857-0.831-4.423
				c-0.178-1.889-2.229-2.114-4.593-3.254c-1.193-0.565-2.5-1.347-3.748-2.653c-0.624-0.653-1.232-1.438-1.802-2.389
				c-0.529-0.965-1.004-2.101-1.415-3.436c-0.132-0.431-1.268-0.14-1.692-0.147c-1.327-0.016-5.08-0.364-5.139-1.886
				c-0.038-2.894,3.263-1.924,4.308-2.229c0.879-0.257,1.498-1.861-1.884-2.678c-5.612-1.407-3.164-3.534-2.32-3.799
				c1.439-0.483-2.372-5.589,2.771-5.959c1.208-0.116,0.811-4.78,4.735-1.101c1.991,1.846,7.829,1.931,3.271-0.94
				c-3.668-2.347-2.414-3.965,1.639-5.093c2.774-0.793,6.666-1.358,10.219-0.117c1.744,0.623,3.556,1.661,5.057,3.338
				c0.758,0.838,1.456,1.833,2.071,3.016C41.724,204.532,42.343,205.884,42.856,207.461z M44.782,234.17
				c0.058,0.913,0.878,1.574,1.829,1.461c0.95-0.111,1.676-0.94,1.629-1.838c-0.047-0.896-0.858-1.533-1.819-1.438
				C45.463,232.45,44.725,233.256,44.782,234.17z M34.271,233.274c-0.593,0.263-0.735,1.236-0.489,2.507
				c0.269,1.261,0.887,2.833,1.674,4.324c0.395,0.745,0.828,1.472,1.287,2.126c0.49,0.639,0.997,1.21,1.496,1.664
				c1,0.911,1.97,1.356,2.728,0.984c0.603-0.295,0.685-1.269,0.417-2.521c-0.134-0.627-0.355-1.323-0.645-2.044
				c-0.26-0.734-0.577-1.498-0.947-2.236c-0.737-1.479-1.667-2.87-2.649-3.796C36.188,233.347,35.21,232.859,34.271,233.274z
				 M36.493,217.738c-0.266,0.5-0.237,0.695-0.23,1.081c0.025,0.633,0.744,1.16,0.63,1.775c-0.159,0.921-2.571,0.478-3.258,0.961
				c-1.363,0.974-0.71,2.071-1.119,2.646c-0.854,1.215-2.66,0.38-3.036-0.845c-0.259-0.842-0.759-0.912-1.388-0.837
				c-0.716,0.084-0.756,1.366-1.587,1.427c-0.747,0.053-1.12-0.529-1.156-1.531c0.032-1.02-3.21-0.503-1.667,1.894
				c0,0,1.513,1.962,4.17,2.615c3.722,0.962,10.828-0.935,11.225-9.118C39.152,216.996,37.539,215.789,36.493,217.738z
				 M29.334,218.769c-0.049,0.749,0.521,1.39,1.265,1.419c0.746,0.03,1.388-0.552,1.439-1.29c0.05-0.737-0.514-1.362-1.262-1.405
				C30.03,217.451,29.382,218.019,29.334,218.769z M18.437,208.568c0.104-0.907-0.469-1.76-1.345-1.905
				c-0.869-0.147-1.679,0.475-1.807,1.403c-0.147,0.933,0.522,1.788,1.397,1.917C17.561,210.112,18.346,209.473,18.437,208.568z
				 M27.979,204.127c1.014,0.979-1.061,1.909-1.687,2.107c-0.878,0.273-3.435,0.706-2.811,1.791c0.453,0.797,0.29,0.299,3.943-0.105
				c3.056-0.343,4.173-0.155,5.152,1.391c1.331,2.088-1.807,4.837-3.069,2.972c-1.568-2.33-3.327-1.32-3.327-1.32
				c-2.432,0.754-3.722,2.462-4.25,4.108c-0.495,1.635-0.173,3.168,0.423,3.544c0.59,0.365,1.395,0.275,1.787,0.063
				c1.279-0.688,1.734-1.404,2.058-3.587c0.068-0.469,0.923-1.246,2.15,0.116c0.431,0.479,1.372,0.611,1.759,0.365
				c0.553-0.352,0.639-1.791,1.858-1.921c2.008-0.219,2.159,1.261,2.805,1.346c1.18,0.148,1.32-0.776,1.036-1.239
				c-0.397-0.67-1.833-1.438-1.816-2.151c-0.008-2.813,3.413,0.476,3.11-2.014c-0.17-1.413-1.385-2.749-2.806-3.89
				c-1.428-1.135-2.932-2.101-3.876-2.609C28.737,202.158,26.405,202.583,27.979,204.127z"/>
			<path d="M48.745,228.64c1.394,0.821,2.461,2.37,2.98,3.934c0.265,0.778,0.393,1.562,0.389,2.241
				c0.017,0.669-0.12,1.245-0.437,1.625c-1.278,1.561-5.261,2.066-7.284,4.057c-1.135,1.123-1.378,2.753,0.361,4.039
				c1.514,1.122,5.22-0.991,11.325,2.493c2.414,1.307,4.208,2.581,5.468,3.818c1.253,1.24,2.168,2.311,2.689,3.235
				c1.648,2.893,2.588,5.34,2.853,7.598c0.136,1.125,0.102,2.201-0.036,3.201c-0.123,0.987-0.375,1.921-0.726,2.797
				c-1.396,3.511-4.37,6.083-6.783,7.66c-1.762,1.161-3.128,1.712-3.999,1.436c-0.862-0.279-1.27-1.358-0.939-3.516
				c0.828-5.34-2.931-0.862-2.848,1.859c0.196,5.388-3.052,2.023-3.928,2.861c-3.652,3.656-4.969-2.6-6.306-1.804
				c-0.772,0.48-3.979,0.944-1.361-4.232c1.6-3.097-0.012-3.681-0.78-3.183c-0.924,0.6-2.321,3.714-4.519,1.819
				c-1.129-1.025,1.079-4.107,1.93-5.121c0.272-0.326,1.235-0.997,0.997-1.378c-1.481-2.368-2.164-4.418-2.277-6.24
				c-0.147-1.805,0.15-3.312,0.535-4.59c0.75-2.549,1.924-4.228,0.642-5.609l0.544-1.016c3.572-0.348,6.876-3.969,4.906-7.956
				c-0.044-0.084-0.085-0.163-0.128-0.244c1.972,0.661,4.364-0.089,5.917-1.506c1.573-1.435,2.445-3.558,1.402-5.83
				c-0.309-0.676-0.721-1.21-1.199-1.631L48.745,228.64z M48.009,274.103c0.459-0.755,0.211-1.762-0.562-2.262
				c-0.779-0.495-1.755-0.333-2.238,0.419c-0.49,0.759-0.214,1.773,0.563,2.289C46.553,275.063,47.55,274.858,48.009,274.103z
				 M42.391,262.326c-0.1,0.692,0.816,1.961,2.425,2.62c1.584,0.681,3.714,0.824,5.872-0.524c0,0,1.911-0.67,1.185-3.389
				c-0.578-2.182,3.543-2.756,4.244-0.374c0.523,1.759-0.067,2.729-2.326,4.818c-2.692,2.501-2.97,2.057-2.653,2.913
				c0.458,1.147,2.431-0.485,3.218-0.976c0.558-0.344,2.616-1.303,2.688,0.11c0.129,2.207,1.976,0.721,2.375-1.17
				c0.221-1.039,0.527-2.851,0.544-4.631c0.061-1.819-0.142-3.624-1.096-4.682c-1.675-1.867-1.438,2.891-3.551,1.034
				c-0.535-0.465-0.246-2.009-0.466-2.767c-0.163-0.519-0.951-1.02-1.611-0.027c-0.359,0.546,0.658,1.63-0.821,3.009
				c-0.895,0.84-2.036-0.039-2.662,0.149c-0.439,0.133-0.955,0.933-0.876,1.573c0.243,1.81-0.89,1.94-1.314,1.703
				c-1.864-1.181-2.696-1.309-4.052-0.788C43.096,261.088,42.501,261.639,42.391,262.326z M48.512,254.797
				c-0.589-0.446-1.447-0.34-1.913,0.245c-0.464,0.583-0.355,1.436,0.241,1.89c0.596,0.457,1.447,0.336,1.905-0.256
				C49.203,256.079,49.101,255.242,48.512,254.797z M39.693,252.732c-1.245,2.443-0.755,4.875-0.755,4.875
				c0.858,2.701,3.323,0.608,2.548-0.043c-0.781-0.653-0.952-1.333-0.43-1.86c0.589-0.592,1.583,0.218,2.114-0.27
				c0.467-0.428,0.742-0.854,0.277-1.601c-0.678-1.087-0.127-3.004,1.348-2.855c0.702,0.066,1.102,1.279,2.728,0.884
				c0.813-0.204,2.057-2.324,2.854-1.842c0.529,0.323,0.474,1.203,0.958,1.623c0.286,0.259,0.414,0.408,0.964,0.534
				c2.153,0.487,2.3-1.529,1.639-2.005c-3.282-2.483-6.352-2.752-8.909-1.908C42.488,249.095,40.557,251.026,39.693,252.732z"/>
			<path d="M46.359,130.646c-0.246,1.03-0.722,2.346-1.656,3.863c-0.918,1.524-2.145,3.293-4.127,5.222
				c-1.293,1.24-2.416,2.147-3.494,2.8c-1.075,0.655-2.076,1.063-2.963,1.355c-1.776,0.585-3.102,0.698-3.707,1.459
				c-0.697,0.852-0.834,1.664-0.627,2.351c0.2,0.687,0.736,1.247,1.444,1.627c2.524,1.335,6.458,0.68,8.146,1.816
				c0.829,0.55,1.219,2.045,1.11,3.676c-0.114,1.633-0.549,3.438-1.664,4.625c-0.679-0.031-1.358,0.037-2,0.207
				c-1.79-1.362-4.499-1.735-6.565-0.743c-1.182,0.092-2.324,0.507-3.217,1.282c-0.914,0.771-1.51,1.911-1.597,3.418
				c-0.026,0.391-0.011,0.76,0.03,1.113c0.008,0.235,0.028,0.464,0.061,0.683l-4.51,0.267c0,0-0.309-0.565-0.706-1.609
				c-0.371-1.041-0.942-2.574-1.175-4.477c-0.26-1.904-0.367-4.197-0.108-6.743c0.365-2.529,1.135-5.307,2.482-8.138
				c0.893-1.681-0.607-2.957-2.043-5.207c-0.709-1.122-1.438-2.497-1.776-4.268c-0.301-1.76-0.254-3.932,0.451-6.636
				c0.113-0.436-1-0.803-1.355-1.039c-1.137-0.738-4.064-3.044-3.252-4.344c1.539-2.453,3.783,0.141,4.837,0.453
				c0.879,0.258,2.243-0.766-0.188-3.287c-1.004-1.047-1.555-1.874-1.806-2.512c-0.228-0.631-0.159-1.076,0.058-1.379
				c0.433-0.608,1.454-0.648,1.885-0.543c1.506,0.382,0.945-6.014,5.489-3.544c1.038,0.538,3.372-3.541,4.576,1.627
				c0.716,2.643,5.597,5.87,3.262,0.974c-1.7-3.904,0.14-4.628,4.166-3.389c2.758,0.828,6.339,2.452,8.689,5.428
				C46.835,120.011,48.004,124.244,46.359,130.646z M33.516,154.181c-0.477,0.795-0.078,1.806,0.78,2.225
				c0.868,0.422,1.914,0.116,2.336-0.668c0.403-0.786,0.136-1.752-0.73-2.193C35.051,153.106,33.985,153.383,33.516,154.181z
				 M25.198,147.743c-1.273-0.207-2.454,3.014-2.723,6.382c-0.201,3.379,0.348,6.81,2.024,6.998c1.334,0.148,2.45-3.063,2.72-6.354
				C27.559,151.49,27.234,148.073,25.198,147.743z M35.479,135.872c-0.485,0.279-0.563,0.46-0.758,0.791
				c-0.322,0.546-0.036,1.369-0.477,1.823c-0.654,0.683-2.411-0.984-3.258-0.951c-1.692,0.079-1.768,1.347-2.396,1.617
				c-1.34,0.57-2.496-1.129-2.086-2.347c0.262-0.841-0.116-1.169-0.681-1.444c-0.644-0.315-1.404,0.734-2.131,0.337
				c-0.652-0.358-0.63-1.044-0.097-1.901c0.534-0.852-2.398-2.148-2.459,0.685c0,0,0.129,2.446,2.083,4.449
				c1.33,1.393,3.744,2.696,6.408,2.766c2.688,0.079,5.481-1.073,8.008-4.366C38.12,136.684,37.381,134.786,35.479,135.872z
				 M28.876,132.867c-0.432,0.609-0.284,1.46,0.331,1.887c0.616,0.429,1.463,0.285,1.892-0.313c0.427-0.598,0.275-1.433-0.335-1.874
				C30.153,132.128,29.307,132.257,28.876,132.867z M25.24,118.411c0.59-0.703,0.533-1.744-0.123-2.338
				c-0.658-0.595-1.669-0.507-2.264,0.212c-0.596,0.718-0.546,1.779,0.117,2.359C23.632,119.224,24.649,119.114,25.24,118.411z
				 M35.645,119.812c0.343,1.378-1.897,1.046-2.529,0.875c-0.895-0.246-3.251-1.251-3.353-0.016
				c-0.075,0.906,0.072,0.404,3.354,2.032c2.756,1.36,3.543,2.102,3.578,3.948c0.037,2.491-4.057,3.122-4.148,0.858
				c-0.108-2.823-2.125-2.92-2.125-2.92c-4.888-1.381-7.979,3.08-7.375,4.37c0.307,0.629,1.037,0.988,1.479,1.021
				c1.432,0.107,2.19-0.253,3.716-1.893c0.323-0.354,1.477-0.542,1.726,1.251c0.088,0.631,0.796,1.246,1.26,1.25
				c0.66,0.004,1.552-1.148,2.642-0.601c1.802,0.898,1.074,2.207,1.579,2.63c0.918,0.763,1.522,0.056,1.563-0.477
				c0.039-0.775-0.683-2.174-0.318-2.776c1.461-2.391,2.639,2.251,3.683-0.024c0.59-1.292,0.245-3.088-0.258-4.787
				c-0.536-1.707-1.356-3.361-1.87-4.296C37.315,118.552,35.124,117.651,35.645,119.812z"/>
			<path d="M39.915,151.68c0.75,1.451,0.66,3.312,0.319,4.92c-0.353,1.604-1.148,2.938-2.102,3.235
				c-1.938,0.618-5.531-1.112-8.329-0.537c-0.786,0.167-1.458,0.554-1.843,1.157c-0.396,0.602-0.482,1.421-0.053,2.433
				c0.367,0.901,1.608,1.379,3.149,2.439c0.77,0.528,1.616,1.201,2.464,2.13c0.847,0.929,1.679,2.114,2.572,3.667
				c1.364,2.406,2.038,4.448,2.501,6.168c0.471,1.718,0.559,3.114,0.506,4.172c-0.118,1.662-0.248,3.128-0.526,4.438
				c-0.281,1.312-0.69,2.465-1.2,3.484c-1.015,2.038-2.288,3.526-3.855,4.625c-3.09,2.2-6.982,2.758-9.861,2.78
				c-4.212,0.062-5.775-1.147-3.048-4.42c3.604-4.046-1.979-2.314-3.409,0.023c-2.597,4.623-3.694,0.055-4.849,0.281
				c-5.054,1.1-2.722-4.885-4.274-4.939c-0.444-0.021-1.413-0.344-1.658-1.049c-0.255-0.7,0.23-1.794,2.765-3.246
				c3.04-1.74,2.018-3.104,1.102-3.103c-1.1,0.003-3.981,1.866-4.771-0.92c-0.411-1.476,3.036-2.87,4.335-3.26
				c0.407-0.127,1.579-0.169,1.592-0.619c0.081-2.794,0.66-4.886,1.464-6.482c0.832-1.596,1.953-2.699,2.975-3.564
				c2.065-1.731,3.92-2.509,3.534-4.37l1.005-0.559c3.158,1.64,7.968,0.396,8.495-4.024c0.006-0.095,0.012-0.184,0.018-0.276
				c1.354,1.632,3.719,2.292,5.815,1.943c1.048-0.174,2.029-0.598,2.783-1.284c0.75-0.688,1.266-1.637,1.5-2.872
				c0.125-0.734,0.086-1.404-0.073-2.016L39.915,151.68z M14.629,189.511c0.796-0.387,1.143-1.37,0.774-2.21
				c-0.37-0.84-1.316-1.23-2.113-0.859c-0.8,0.371-1.145,1.376-0.774,2.231C12.885,189.529,13.831,189.898,14.629,189.511z
				 M16.246,176.562c-0.933,1.069,0.777,6.218,5.858,6.259c0,0,1.963,0.473,2.858-2.209c0.723-2.147,4.475-0.396,3.741,1.985
				c-0.552,1.763-1.506,2.254-4.537,2.789c-3.606,0.644-3.607,0.121-3.789,1.012c-0.249,1.214,2.295,0.909,3.223,0.923
				c0.655,0.013,2.897,0.32,2.182,1.548c-1.106,1.928,1.25,1.677,2.624,0.302c0.755-0.755,2.007-2.112,3-3.602
				c0.96-1.49,1.786-3.117,1.586-4.522c-0.364-2.477-2.796,1.65-3.529-1.055c-0.181-0.68,0.904-1.821,1.084-2.576
				c0.112-0.523-0.279-1.371-1.371-0.896c-0.594,0.265-0.269,1.726-2.249,2.083c-1.2,0.22-1.733-1.136-2.367-1.316
				c-0.447-0.126-1.299,0.267-1.56,0.848c-0.742,1.652-1.797,1.148-2.008,0.719c-1-2.001-1.638-2.56-3.042-2.857
				C17.518,175.903,16.717,176.044,16.246,176.562z M25.514,173.551c-0.244-0.693-1.017-1.07-1.729-0.83
				c-0.709,0.239-1.09,1.014-0.847,1.72c0.242,0.705,1.018,1.066,1.728,0.815C25.376,175.003,25.756,174.245,25.514,173.551z
				 M19.203,167.036c-2.438,1.375-3.242,3.688-3.242,3.688c-0.736,2.736,2.442,2.313,2.169,1.346
				c-0.272-0.972-0.101-1.637,0.626-1.798c0.809-0.177,1.245,1.042,1.952,0.92c0.62-0.105,1.075-0.315,1.059-1.196
				c-0.05-1.283,1.526-2.592,2.657-1.669c0.526,0.435,0.252,1.673,1.85,2.223c0.804,0.269,2.958-0.84,3.394-0.001
				c0.296,0.559-0.209,1.269-0.054,1.884c0.095,0.372,0.119,0.567,0.506,0.971c1.521,1.575,2.763-0.04,2.478-0.796
				c-1.501-3.869-3.869-5.755-6.467-6.432C23.553,165.496,20.87,166.071,19.203,167.036z"/>
			<path d="M90.872,67.915c-0.759,0.742-1.938,1.513-3.488,2.352c-1.556,0.834-3.636,1.555-6.319,2.133
				c-6.837,1.632-9.801-1.435-11.569-0.782c-2.03,0.747-2.254,2.38-1.479,3.776c1.383,2.478,5.065,4.08,5.854,5.936
				c0.196,0.452,0.167,1.041-0.035,1.675c-0.185,0.651-0.524,1.364-0.994,2.035c-0.931,1.35-2.379,2.538-3.942,2.943
				c-0.553-0.393-1.158-0.702-1.784-0.902c-0.789-2.129-2.866-3.911-5.118-4.179c-2.072-1.124-4.713-1.026-6.58,1.358
				c-0.241,0.309-0.437,0.621-0.6,0.934c-0.13,0.195-0.224,0.407-0.312,0.612l-3.928-2.207c0,0,0.016-0.162,0.045-0.463
				c0.037-0.299,0.089-0.745,0.222-1.278c0.251-1.077,0.698-2.599,1.476-4.371c0.395-0.88,0.847-1.844,1.441-2.804
				c0.608-0.948,1.317-1.928,2.137-2.91c0.826-0.976,1.738-1.978,2.819-2.905c1.102-0.908,2.326-1.783,3.678-2.59
				c1.622-0.967,1.018-2.888,1.07-5.518c0.018-1.323,0.184-2.84,0.852-4.521c0.642-1.707,1.884-3.477,3.971-5.334
				c0.335-0.299-0.401-1.213-0.57-1.603c-0.533-1.211-1.788-4.789-0.417-5.457c2.641-1.202,3.109,2.179,3.827,3.013
				c0.598,0.694,2.309,0.585,1.641-2.835c-1.062-5.704,1.886-4.359,2.493-3.681c1.06,1.139,4.078-4.497,6.559,0.037
				c0.607,1.05,4.667-1.269,2.968,3.848c-0.842,2.589,1.51,7.941,2.212,2.583c0.288-2.163,0.981-3.085,1.888-3.112
				c0.914-0.021,2.07,0.891,3.436,2.5c1.874,2.19,4.007,5.493,4.363,9.255c0.09,0.939,0.071,1.906-0.088,2.888
				c-0.148,0.999-0.417,2.042-0.863,3.083C94.854,63.515,93.265,65.601,90.872,67.915z M67.338,80.736
				c-0.805,0.433-1.064,1.456-0.567,2.276c0.496,0.82,1.549,1.137,2.344,0.72c0.793-0.416,1.035-1.421,0.55-2.257
				C69.182,80.641,68.145,80.303,67.338,80.736z M63.812,70.802c-0.49-0.437-1.413-0.144-2.491,0.586
				c-1.053,0.751-2.209,1.981-3.24,3.316c-2.112,2.639-3.358,5.942-2.069,6.991c1.064,0.864,3.587-1.356,5.708-3.88
				c1.042-1.282,1.901-2.725,2.357-3.984C64.554,72.591,64.574,71.481,63.812,70.802z M78.879,66.396
				c-0.563-0.034-0.729,0.074-1.075,0.242c-0.582,0.268-0.775,1.128-1.374,1.29c-0.902,0.24-1.5-2.144-2.224-2.568
				c-1.449-0.835-2.174,0.217-2.866,0.084c-1.458-0.272-1.449-2.266-0.493-3.119c0.656-0.587,0.511-1.071,0.183-1.614
				c-0.373-0.617-1.553-0.119-1.954-0.851c-0.352-0.653,0.002-1.258,0.935-1.666c0.926-0.408-0.853-3.108-2.434-0.755
				c0,0-1.152,2.196-0.643,4.891c0.351,1.879,1.663,4.275,3.869,5.784c2.219,1.527,5.241,2.13,9.087,0.667
				C80.658,68.509,81.083,66.532,78.879,66.396z M74.974,60.302c-0.701,0.27-1.044,1.056-0.762,1.747
				c0.283,0.692,1.077,1.034,1.768,0.772c0.689-0.263,1.022-1.038,0.75-1.738C76.457,60.386,75.673,60.032,74.974,60.302z
				 M79.735,46.162c0.882-0.264,1.403-1.161,1.174-2.014c-0.229-0.854-1.128-1.33-2.022-1.055c-0.89,0.277-1.44,1.173-1.182,2.039
				C77.956,45.99,78.848,46.417,79.735,46.162z M87.736,52.995c-0.465,1.335-2.171-0.162-2.61-0.649
				c-0.618-0.691-2.054-2.812-2.815-1.838c-0.543,0.734-0.153,0.385,1.73,3.541c1.582,2.639,1.877,3.735,0.882,5.276
				c-1.34,2.09-5.136,0.384-3.969-1.549c1.46-2.406-0.187-3.584-0.187-3.585c-1.693-1.899-3.777-2.358-5.489-2.15
				c-1.729,0.182-2.964,1.143-3.062,1.836c-0.087,0.69,0.329,1.386,0.685,1.654c1.156,0.879,1.99,0.991,4.11,0.379
				c0.474-0.108,1.525,0.334,0.785,2.004c-0.255,0.593,0.016,1.505,0.399,1.756c0.549,0.356,1.89-0.167,2.514,0.889
				c1.033,1.738-0.247,2.494-0.056,3.119c0.355,1.138,1.253,0.877,1.554,0.426c0.424-0.666,0.579-2.229,1.223-2.525
				c2.548-1.189,0.987,3.31,3.119,1.988c1.213-0.748,1.913-2.423,2.365-4.187c0.483-1.713,0.697-3.538,0.776-4.598
				C89.835,52.857,88.48,50.912,87.736,52.995z"/>
			<path d="M74.023,82.067c-0.213,1.572-1.142,3.22-2.354,4.334c-1.197,1.126-2.619,1.789-3.552,1.546
				c-1.945-0.516-4.059-3.937-6.704-4.953c-1.49-0.568-3.071-0.11-3.515,2.01c-0.196,0.942,0.579,2.008,1.285,3.719
				c0.744,1.733,1.438,4.129,1.139,7.622c-0.138,1.34-0.26,2.582-0.46,3.672c-0.199,1.091-0.456,2.044-0.748,2.879
				c-0.611,1.651-1.238,2.905-1.837,3.776c-0.935,1.369-1.908,2.493-2.881,3.429c-0.921,0.963-1.871,1.722-2.833,2.313
				c-1.911,1.189-3.941,1.677-5.79,1.787c-3.758,0.195-7.336-1.438-9.776-2.978c-3.573-2.219-4.324-4.124-0.145-5.349
				c5.181-1.478-0.447-3.033-2.876-1.819c-4.799,2.432-3.109-1.935-4.237-2.384c-4.833-1.797,0.257-5.629-0.989-6.497
				c-0.735-0.491-2.489-3.219,3.293-2.996c3.475,0.165,3.331-1.549,2.559-2.042c-0.918-0.585-4.358-0.58-3.51-3.348
				c0.483-1.444,4.183-0.726,5.461-0.369c0.409,0.112,1.418,0.71,1.666,0.334c0.768-1.167,1.545-2.121,2.327-2.893
				c0.818-0.748,1.627-1.322,2.416-1.764c1.576-0.885,3.067-1.242,4.388-1.423c2.618-0.381,4.684,0.032,5.382-1.729l1.147,0.073
				c0.886,1.561,2.517,2.708,4.258,3.043c0.871,0.167,1.769,0.131,2.62-0.166c0.844-0.303,1.654-0.855,2.402-1.694
				c0.059-0.076,0.112-0.146,0.169-0.219c0.473,4.143,6.464,7.362,9.693,3.619c0.492-0.557,0.783-1.175,0.999-1.758L74.023,82.067z
				 M32.323,100.214c0.881,0.105,1.671-0.552,1.825-1.452c0.166-0.893-0.408-1.727-1.287-1.85c-0.877-0.122-1.759,0.512-1.879,1.448
				C30.844,99.287,31.447,100.111,32.323,100.214z M40.725,90.217c-0.678,0.193-1.417,1.575-1.4,3.284
				c0.045,1.729,0.805,3.729,2.927,5.135c0,0,1.406,1.462,3.564-0.334c1.734-1.437,3.975,2.082,2.112,3.713
				c-1.374,1.209-2.499,1.076-5.335-0.11c-3.394-1.412-3.098-1.844-3.755-1.207c-0.903,0.867,1.43,2,2.196,2.508
				c0.545,0.365,2.275,1.84,1.028,2.496c-1.943,1.041,0.176,2.102,2.053,1.676c1.049-0.224,2.764-0.729,4.452-1.418
				c1.684-0.696,3.225-1.638,3.785-2.947c0.989-2.305-3.217-0.106-2.421-2.805c0.185-0.689,1.777-1.025,2.347-1.556
				c0.402-0.364,0.527-1.292-0.647-1.48c-0.645-0.1-1.204,1.279-3.07,0.505c-1.134-0.466-0.813-1.872-1.245-2.365
				c-0.303-0.344-1.243-0.481-1.792-0.142c-1.56,0.963-2.162-0.022-2.096-0.491c0.302-2.187,0.065-3.002-0.97-4.021
				C42.141,90.344,41.394,90.032,40.725,90.217z M50.101,92.661c0.158-0.723-0.295-1.461-1.02-1.641
				c-0.722-0.18-1.449,0.274-1.612,1.007c-0.165,0.733,0.299,1.459,1.026,1.629C49.226,93.824,49.941,93.383,50.101,92.661z
				 M48.333,83.782c-2.734-0.117-4.737,1.341-4.737,1.341c-2.153,1.867,0.814,3.272,1.069,2.285
				c0.315-0.952,0.837-1.406,1.539-1.146c0.781,0.291,0.46,1.534,1.124,1.814c0.583,0.249,1.083,0.321,1.567-0.414
				c0.704-1.07,2.671-1.366,3.151,0.04c0.231,0.667-0.703,1.537,0.332,2.855c0.524,0.656,2.964,0.907,2.859,1.835
				c-0.064,0.623-0.902,0.927-1.103,1.528c-0.115,0.368-0.197,0.547-0.082,1.101c0.457,2.166,2.345,1.459,2.5,0.66
				C58.464,87.715,52.176,83.902,48.333,83.782z"/>
			<path d="M162.149,39.158c-0.52,0.089-1.131,0.147-1.832,0.161c-0.697,0.046-1.484,0.042-2.364-0.044s-1.855-0.252-2.931-0.528
				c-0.538-0.137-1.102-0.308-1.691-0.498c-0.585-0.167-1.197-0.364-1.838-0.594c-3.301-1.18-5.199-2.84-6.46-4.198
				c-1.263-1.35-1.913-2.501-2.851-2.715c-2.115-0.481-3.187,0.764-3.289,2.352c-0.172,2.827,2.065,6.172,1.728,8.154
				c-0.165,0.949-1.342,1.987-2.858,2.593c-1.51,0.637-3.387,0.795-4.9,0.364c-0.254-0.629-0.597-1.216-1.017-1.724
				c0.483-2.216-0.305-4.835-2.058-6.279c-1.14-2.066-3.42-3.418-6.284-2.435c-0.374,0.119-0.696,0.307-0.998,0.493
				c-0.209,0.108-0.407,0.225-0.591,0.35l-2.12-3.979c0,0,0.382-0.525,1.159-1.336c0.777-0.809,1.99-1.81,3.6-2.882
				c0.807-0.531,1.717-1.069,2.727-1.583c1.007-0.522,2.148-0.916,3.367-1.306c1.223-0.376,2.541-0.694,3.943-0.92
				c1.404-0.222,2.921-0.244,4.495-0.197c1.895,0.088,2.418-1.875,3.876-4.091c0.731-1.097,1.692-2.275,3.166-3.317
				c1.471-1.045,3.455-1.979,6.226-2.354c0.445-0.068,0.32-1.232,0.388-1.651c0.207-1.311,1.09-4.968,2.606-4.803
				c2.864,0.325,1.434,3.483,1.586,4.565c0.125,0.884,1.626,1.747,2.919-1.479c2.198-5.34,3.953-2.606,4.094-1.733
				c0.27,1.445,5.868-1.556,5.498,3.583c-0.059,1.212,4.615,1.514,0.412,4.845c-2.112,1.695-3.034,7.455,0.461,3.376
				c1.414-1.62,2.496-2.095,3.272-1.645c0.779,0.473,1.257,1.884,1.534,3.976C175.906,27.499,175.088,37.034,162.149,39.158z
				 M135.449,37.247c-0.913-0.076-1.685,0.64-1.708,1.597c-0.025,0.955,0.693,1.792,1.587,1.877
				c0.894,0.084,1.641-0.626,1.684-1.589C137.055,38.168,136.363,37.323,135.449,37.247z M137.833,26.964
				c-0.172-0.616-1.123-0.925-2.408-0.829c-1.287,0.083-2.932,0.467-4.521,1.03c-0.792,0.289-1.581,0.591-2.285,0.98
				c-0.703,0.392-1.34,0.811-1.862,1.24c-1.045,0.858-1.624,1.753-1.364,2.556c0.207,0.639,1.159,0.86,2.437,0.776
				c1.276-0.092,2.882-0.486,4.461-0.97c1.569-0.514,3.08-1.233,4.137-2.07C137.482,28.832,138.112,27.962,137.833,26.964z
				 M152.89,31.382c-0.456-0.336-0.655-0.342-1.034-0.368c-0.627-0.05-1.254,0.57-1.847,0.372c-0.889-0.291-0.104-2.611-0.484-3.362
				c-0.769-1.49-1.949-1.004-2.46-1.494c-1.081-1.023,0.005-2.684,1.272-2.877c0.87-0.132,1.011-0.617,1.027-1.249
				c0.02-0.72-1.245-0.948-1.185-1.779c0.055-0.747,0.686-1.028,1.683-0.92c0.994,0.12,0.958-3.104-1.636-1.923
				c0,0-2.161,1.209-3.189,3.742c-1.488,3.531-0.623,10.854,7.417,12.418C153.242,34.108,154.672,32.709,152.89,31.382z
				 M152.897,24.155c-0.735-0.157-1.451,0.312-1.587,1.041c-0.135,0.74,0.347,1.448,1.071,1.612c0.724,0.158,1.423-0.307,1.572-1.04
				C154.101,25.036,153.633,24.311,152.897,24.155z M164.557,14.855c0.881,0.208,1.806-0.257,2.076-1.087
				c0.271-0.838-0.229-1.732-1.13-1.995c-0.897-0.224-1.842,0.285-2.095,1.138C163.153,13.761,163.674,14.631,164.557,14.855z
				 M167.583,24.908c-1.115,0.844-1.737-1.321-1.842-1.959c-0.146-0.914-0.206-3.478-1.37-3.028
				c-0.854,0.33-0.338,0.242-0.462,3.914c-0.098,3.072-0.444,4.15-2.116,4.886c-2.261,0.983-4.523-2.446-2.502-3.473
				c2.532-1.205,1.785-3.094,1.785-3.094c-0.396-2.508-1.905-4.06-3.456-4.792c-1.544-0.696-3.112-0.627-3.568-0.085
				c-0.447,0.528-0.473,1.338-0.319,1.757c0.497,1.364,1.141,1.92,3.257,2.562c0.454,0.136,1.101,1.095-0.424,2.107
				c-0.536,0.356-0.802,1.266-0.614,1.687c0.269,0.597,1.682,0.896,1.635,2.119c-0.072,2.018-1.558,1.948-1.735,2.575
				c-0.316,1.145,0.58,1.419,1.079,1.208c0.718-0.306,1.689-1.573,2.387-1.51c2.788,0.406-0.96,3.302,1.548,3.372
				c2.816,0.099,6.075-4.069,7.392-5.679C169.423,25.95,169.336,23.582,167.583,24.908z"/>
			<path d="M140.353,41.952c-1.991,2.595-6.809,3.181-8.129,1.799c-1.363-1.49-1.296-5.501-2.978-7.789
				c-0.949-1.284-2.53-1.759-4.051-0.224c-1.328,1.333,0.246,5.328-4.076,10.853c-1.628,2.221-3.151,3.798-4.553,4.872
				c-1.396,1.08-2.593,1.82-3.581,2.206c-3.099,1.215-5.646,1.813-7.924,1.746c-2.285-0.084-4.194-0.665-5.828-1.601
				c-3.279-1.881-5.405-5.189-6.625-7.801c-1.8-3.787-1.397-5.786,2.757-4.596c5.172,1.579,1.27-2.778-1.438-3.084
				c-5.354-0.555-1.577-3.316-2.276-4.292c-3.102-4.133,3.281-4.547,2.682-5.982c-0.164-0.407-0.285-1.442,0.264-1.939
				c0.546-0.493,1.755-0.481,4.118,1.188c2.84,2.023,3.647,0.512,3.263-0.32c-0.462-0.998-3.348-2.825-1.159-4.729
				c1.167-0.989,3.913,1.648,4.794,2.631c0.284,0.316,0.811,1.362,1.223,1.183c5.101-2.317,8.57-1.285,10.972-0.185
				c1.213,0.566,2.187,1.18,3.051,1.521c0.874,0.365,1.632,0.444,2.409-0.092L124.197,28c-0.167,3.576,2.955,7.385,7.174,5.983
				c0.09-0.031,0.174-0.061,0.261-0.09c-0.933,1.863-0.529,4.349,0.651,6.082c1.186,1.732,3.171,2.924,5.566,2.216
				c0.713-0.208,1.301-0.536,1.786-0.948L140.353,41.952z M95.466,34.769c0.682,0.561,1.715,0.458,2.321-0.234
				c0.601-0.699,0.571-1.705-0.103-2.283c-0.673-0.577-1.723-0.459-2.342,0.239C94.721,33.191,94.783,34.208,95.466,34.769z
				 M107.92,30.873c-1.404-0.49-5.334,3.277-3.251,7.917c0,0,0.393,1.986,3.188,1.655c2.243-0.26,2.226,3.899-0.233,4.251
				c-1.814,0.269-2.692-0.455-4.441-2.987c-2.093-3.016-1.62-3.239-2.505-3.032c-1.201,0.289,0.135,2.474,0.51,3.324
				c0.262,0.601,0.918,2.772-0.49,2.643c-2.205-0.187-0.995,1.851,0.821,2.516c0.998,0.367,2.748,0.927,4.509,1.197
				c1.784,0.304,3.607,0.374,4.788-0.423c2.086-1.391-2.659-1.836-0.52-3.659c0.54-0.456,2.018,0.031,2.801-0.075
				c0.537-0.087,1.145-0.795,0.256-1.591c-0.488-0.429-1.712,0.409-2.86-1.234c-0.708-1.013,0.323-2.018,0.227-2.663
				c-0.07-0.454-0.788-1.077-1.435-1.092c-1.818,0-1.792-1.151-1.495-1.534c1.425-1.694,1.676-2.486,1.352-3.905
				C109.046,31.747,108.584,31.079,107.92,30.873z M114.507,38.003c0.525-0.52,0.542-1.383,0.029-1.927
				c-0.511-0.542-1.371-0.555-1.906-0.031c-0.537,0.523-0.539,1.383-0.017,1.92C113.138,38.502,113.981,38.521,114.507,38.003z
				 M117.802,29.566c-2.244-1.582-4.722-1.446-4.722-1.446c-2.788,0.484-1.074,3.206-0.316,2.538c0.76-0.676,1.447-0.771,1.9-0.169
				c0.502,0.669-0.443,1.531-0.032,2.134c0.353,0.514,0.738,0.854,1.543,0.499c1.173-0.514,2.993,0.304,2.636,1.743
				c-0.165,0.685-1.424,0.906-1.264,2.57c0.087,0.834,2.01,2.369,1.418,3.088c-0.397,0.472-1.251,0.314-1.74,0.725
				c-0.296,0.246-0.462,0.352-0.666,0.877c-0.788,2.06,1.188,2.494,1.752,1.909c2.917-2.911,3.626-5.893,3.153-8.548
				C121.006,32.852,119.369,30.665,117.802,29.566z"/>
			<path d="M237.684,53.541c-0.982-0.394-2.207-1.071-3.575-2.208c-1.405-1.065-2.948-2.598-4.572-4.835
				c-4.327-5.53-2.803-9.445-4.102-10.864c-1.532-1.513-3.114-1.021-4.061,0.272c-1.676,2.3-1.591,6.301-2.95,7.803
				c-0.664,0.75-2.179,0.872-3.786,0.573c-1.62-0.266-3.317-1.039-4.336-2.302c0.127-0.667,0.156-1.352,0.079-2.014
				c1.595-1.567,2.346-4.197,1.659-6.395c0.073-1.178-0.169-2.398-0.816-3.366c-0.649-0.958-1.694-1.707-3.168-2.033
				c-0.383-0.085-0.749-0.126-1.104-0.138c-0.232-0.028-0.462-0.042-0.683-0.042l0.369-4.509c0,0,2.406-0.884,6.291-1.003
				c1.93-0.022,4.2,0.254,6.683,0.883c0.618,0.163,1.253,0.337,1.889,0.565c0.631,0.245,1.271,0.517,1.916,0.821
				c1.29,0.608,2.602,1.341,3.904,2.218c1.572,1.024,3.017-0.191,5.452-1.303c1.213-0.543,2.665-1.034,4.478-1.14
				c1.81-0.104,3.928,0.314,6.504,1.4c0.414,0.178,0.938-0.872,1.222-1.188c0.881-0.993,3.622-3.644,4.778-2.624
				c2.202,1.889-0.684,3.729-1.144,4.729c-0.381,0.832,0.434,2.335,3.273,0.298c4.767-3.373,4.732-0.059,4.378,0.756
				c-0.595,1.437,5.805,1.82,2.71,5.96c-0.688,0.96,3.056,3.783-2.268,4.297c-2.712,0.318-6.606,4.687-1.431,3.084
				c4.13-1.161,4.56,0.803,2.761,4.601c-1.215,2.613-3.336,5.924-6.614,7.816c-1.646,0.963-3.525,1.501-5.815,1.604
				c-1.137,0.036-2.354-0.076-3.658-0.371c-0.656-0.141-1.319-0.356-2.034-0.57C239.195,54.109,238.453,53.852,237.684,53.541z
				 M216.247,37.489c-0.732-0.54-1.774-0.337-2.312,0.463c-0.539,0.796-0.385,1.881,0.328,2.417c0.712,0.538,1.731,0.32,2.287-0.467
				C217.104,39.12,216.982,38.021,216.247,37.489z M223.792,30.164c0.192-0.627-0.462-1.335-1.579-1.997
				c-0.559-0.329-1.23-0.654-1.97-0.937c-0.748-0.253-1.562-0.475-2.387-0.651c-1.65-0.354-3.35-0.525-4.682-0.403
				c-1.334,0.126-2.319,0.626-2.531,1.43c-0.175,0.662,0.521,1.306,1.635,1.953c1.113,0.656,2.664,1.243,4.271,1.626
				c0.805,0.191,1.623,0.332,2.41,0.405c0.776,0.106,1.52,0.151,2.185,0.101C222.474,31.593,223.493,31.139,223.792,30.164z
				 M234.076,42.019c-0.205-0.523-0.373-0.627-0.672-0.87c-0.492-0.4-1.346-0.24-1.729-0.744c-0.585-0.738,1.321-2.252,1.406-3.088
				c0.165-1.689-1.106-1.877-1.273-2.564c-0.363-1.431,1.457-2.266,2.636-1.764c0.797,0.374,1.172,0.057,1.525-0.466
				c0.404-0.591-0.522-1.5-0.026-2.162c0.446-0.594,1.121-0.47,1.891,0.187c0.764,0.657,2.465-2.058-0.323-2.54
				c0,0-0.152-0.013-0.415-0.009c-0.262-0.001-0.64,0.028-1.093,0.118c-0.901,0.171-2.083,0.543-3.204,1.343
				c-1.566,1.111-3.197,3.309-3.647,5.939c-0.228,1.314-0.166,2.733,0.323,4.169c0.491,1.431,1.412,2.868,2.854,4.371
				C232.896,44.517,234.874,44.067,234.076,42.019z M237.991,35.921c-0.539-0.519-1.4-0.498-1.91,0.047
				c-0.513,0.547-0.491,1.409,0.037,1.923c0.528,0.513,1.373,0.487,1.897-0.053C238.536,37.297,238.53,36.44,237.991,35.921z
				 M252.827,34.38c0.609,0.688,1.644,0.786,2.326,0.222s0.74-1.579,0.116-2.275c-0.622-0.696-1.678-0.803-2.346-0.231
				S252.218,33.692,252.827,34.38z M249.942,44.487c-1.411,0.137-0.759-2.035-0.498-2.637c0.372-0.849,1.703-3.037,0.499-3.32
				c-0.884-0.207-0.409,0.013-2.49,3.025c-1.73,2.513-2.615,3.258-4.433,2.998c-2.462-0.334-2.495-4.485-0.247-4.241
				c2.803,0.311,3.188-1.673,3.188-1.673c1.021-2.329,0.568-4.408-0.339-5.871c-0.451-0.73-1.012-1.304-1.542-1.67
				c-0.536-0.355-1.053-0.48-1.392-0.375c-0.665,0.211-1.124,0.88-1.221,1.314c-0.327,1.435-0.046,2.17,1.354,3.922
				c0.303,0.373,0.321,1.545-1.485,1.526c-0.631-0.016-1.358,0.632-1.423,1.08c-0.086,0.626,0.915,1.696,0.22,2.692
				c-0.572,0.826-1.154,1.008-1.658,1.046c-0.512,0.053-0.94-0.047-1.185,0.17c-0.887,0.801-0.274,1.501,0.264,1.584
				c0.765,0.141,2.244-0.357,2.788,0.09c2.148,1.805-2.602,2.283-0.508,3.656c1.179,0.8,3.027,0.674,4.781,0.418
				c1.763-0.28,3.514-0.849,4.512-1.22C250.945,46.33,252.151,44.288,249.942,44.487z"/>
			<path d="M217.815,44.161c-0.765,0.251-1.607,0.303-2.446,0.207c-0.846-0.075-1.702-0.256-2.467-0.557
				c-1.53-0.593-2.731-1.583-2.891-2.573c-0.337-2.015,1.877-5.315,1.703-8.174c-0.095-1.634-1.177-2.854-3.297-2.34
				c-0.941,0.228-1.588,1.385-2.851,2.751c-0.631,0.683-1.413,1.419-2.45,2.119c-1.039,0.711-2.348,1.462-4.004,2.076
				c-1.286,0.482-2.459,0.828-3.531,1.067c-1.069,0.224-2.056,0.46-2.938,0.546c-1.769,0.204-3.166,0.079-4.206-0.135
				c-3.273-0.557-5.734-1.514-7.61-2.836c-1.877-1.209-3.166-2.765-4.031-4.457c-1.736-3.385-1.731-7.317-1.341-10.167
				c0.54-4.174,1.959-5.539,4.809-2.353c1.769,1.984,2.376,1.645,2.329,0.483c-0.052-1.14-0.806-3.055-1.866-3.864
				c-4.203-3.255,0.473-3.64,0.414-4.85c-0.363-5.213,5.217-1.997,5.491-3.526c0.141-0.871,1.896-3.645,4.094,1.671
				c1.287,3.27,2.78,2.463,2.907,1.557c0.152-1.09-1.279-4.22,1.583-4.584c1.515-0.189,2.402,3.447,2.61,4.752
				c0.068,0.416-0.056,1.582,0.39,1.641c11.089,1.923,9.366,10.225,13.138,9.961l0.414,1.063c-1.05,1.466-1.412,3.426-0.986,5.136
				c0.438,1.68,1.616,3.229,3.778,3.824c0.094,0.021,0.181,0.04,0.271,0.06c-3.577,2.197-3.994,8.968,0.773,10.272
				c0.705,0.235,1.37,0.296,1.995,0.23L217.815,44.161z M183.948,13.792c0.27,0.847,1.192,1.335,2.075,1.096s1.403-1.117,1.15-1.962
				c-0.254-0.846-1.198-1.338-2.097-1.099C184.178,12.065,183.679,12.945,183.948,13.792z M196.525,17.263
				c-0.927-1.069-6.255-0.162-7.018,4.862c0,0-0.745,1.87,1.779,3.161c2.021,1.04-0.241,4.488-2.495,3.403
				c-1.675-0.711-2.021-1.775-2.12-4.843c-0.126-3.665,0.393-3.586-0.463-3.901c-1.165-0.427-1.226,2.134-1.371,3.049
				c-0.106,0.646-0.729,2.819-1.842,1.926c-1.751-1.385-1.839,0.985-0.674,2.549c0.64,0.861,1.806,2.303,3.138,3.51
				c1.336,1.22,2.841,2.142,4.26,2.187c2.503,0.015-1.238-3.017,1.543-3.333c0.699-0.075,1.675,1.171,2.397,1.463
				c0.5,0.202,1.398-0.087,1.08-1.224c-0.179-0.621-1.671-0.525-1.744-2.537c-0.049-1.221,1.368-1.543,1.638-2.145
				c0.187-0.423-0.081-1.325-0.618-1.671c-1.53-0.984-0.882-1.953-0.428-2.097c2.119-0.677,2.764-1.242,3.259-2.613
				C197,18.59,196.973,17.783,196.525,17.263z M198.203,26.823c0.72-0.136,1.2-0.845,1.064-1.586
				c-0.137-0.738-0.85-1.233-1.58-1.098c-0.731,0.125-1.201,0.869-1.052,1.595C196.788,26.459,197.482,26.961,198.203,26.823z
				 M205.545,21.472c-1.037-2.51-3.204-3.682-3.204-3.682c-2.599-1.141-2.628,2.07-1.634,1.944c0.998-0.123,1.631,0.147,1.688,0.892
				c0.062,0.829-1.205,1.075-1.183,1.793c0.018,0.631,0.159,1.112,1.032,1.229c1.271,0.172,2.364,1.812,1.283,2.85
				c-0.511,0.497-1.695,0.031-2.463,1.531c-0.38,0.754,0.414,3.055-0.477,3.362c-0.595,0.207-1.227-0.401-1.855-0.34
				c-0.382,0.037-0.578,0.031-1.032,0.354c-1.772,1.267-0.35,2.741,0.438,2.574c2.017-0.422,3.579-1.199,4.771-2.178
				c1.193-0.99,1.997-2.098,2.514-3.337C206.455,26.015,206.264,23.27,205.545,21.472z"/>
			<path d="M293.436,106.483c-1.171-1.778-2.717-4.854-3.062-10.338c-0.313-3.49,0.374-5.883,1.112-7.617
				c0.733-1.733,1.483-2.783,1.292-3.729c-0.45-2.118-2.033-2.571-3.523-2.002c-2.646,1.02-4.755,4.44-6.702,4.958
				c-0.479,0.133-1.045,0.012-1.659-0.266c-0.624-0.27-1.276-0.713-1.875-1.273c-1.208-1.11-2.16-2.73-2.362-4.316
				c0.467-0.492,0.858-1.048,1.146-1.64c2.222-0.481,4.277-2.286,4.86-4.476c1.405-1.894,1.686-4.525-0.405-6.715
				c-0.273-0.281-0.546-0.528-0.845-0.722c-0.187-0.144-0.376-0.275-0.566-0.39l2.742-3.577c0,0,0.641,0.125,1.695,0.501
				c1.029,0.402,2.471,1.063,4.111,2.086c0.819,0.512,1.69,1.112,2.578,1.817c0.852,0.738,1.72,1.579,2.574,2.531
				c0.853,0.954,1.697,2.013,2.482,3.197c0.741,1.22,1.434,2.557,2.039,4.011c0.716,1.752,2.724,1.408,5.315,1.834
				c1.307,0.205,2.782,0.584,4.351,1.484c0.776,0.455,1.606,1.018,2.391,1.79c0.777,0.777,1.561,1.728,2.332,2.891
				c0.249,0.374,1.257-0.226,1.666-0.338c1.28-0.36,4.979-1.087,5.469,0.352c0.813,2.786-2.598,2.772-3.523,3.366
				c-0.771,0.494-0.907,2.205,2.572,2.028c5.782-0.24,4.058,2.478,3.299,2.984c-1.277,0.888,3.868,4.677-0.969,6.494
				c-1.127,0.453,0.594,4.802-4.229,2.396c-2.441-1.201-8.07,0.373-2.869,1.827c2.095,0.593,2.935,1.397,2.82,2.305
				c-0.109,0.908-1.176,1.925-2.961,3.05c-2.434,1.546-6.006,3.192-9.775,3.012c-0.944-0.042-1.889-0.202-2.85-0.493
				c-0.98-0.281-1.963-0.7-2.933-1.287c-0.97-0.587-1.927-1.343-2.858-2.301C295.393,108.953,294.369,107.855,293.436,106.483z
				 M284.056,81.375c-0.313-0.86-1.289-1.262-2.17-0.886c-0.882,0.375-1.345,1.374-1.046,2.22c0.299,0.847,1.259,1.229,2.154,0.867
				C283.888,83.216,284.369,82.236,284.056,81.375z M294.393,79.285c0.501-0.423,0.343-1.38-0.227-2.55
				c-0.614-1.132-1.652-2.465-2.829-3.673c-0.589-0.604-1.212-1.176-1.835-1.676c-0.63-0.494-1.293-0.884-1.896-1.184
				c-1.218-0.592-2.274-0.746-2.897-0.177c-0.496,0.454-0.3,1.41,0.311,2.535c0.301,0.566,0.724,1.16,1.186,1.786
				c0.453,0.635,0.977,1.275,1.539,1.88c1.125,1.21,2.413,2.28,3.616,2.893C292.518,79.766,293.612,79.943,294.393,79.285z
				 M296.632,94.823c0.113-0.553,0.03-0.732-0.087-1.1c-0.18-0.615-1.026-0.914-1.092-1.536c-0.109-0.927,2.333-1.184,2.855-1.84
				c1.032-1.318,0.095-2.186,0.324-2.852c0.476-1.406,2.446-1.114,3.155-0.047c0.486,0.734,0.987,0.659,1.569,0.41
				c0.664-0.283,0.338-1.522,1.12-1.815c0.693-0.255,1.244,0.179,1.526,1.153c0.267,0.979,3.204-0.412,1.08-2.296
				c0,0-2.008-1.453-4.745-1.329c-3.855,0.135-10.118,3.936-8.208,11.917C294.289,96.286,296.184,96.986,296.632,94.823z
				 M303.213,91.815c-0.168-0.731-0.896-1.184-1.619-1.002c-0.725,0.183-1.176,0.921-1.015,1.643
				c0.163,0.721,0.882,1.159,1.613,0.989C302.92,93.273,303.382,92.546,303.213,91.815z M316.545,98.52
				c0.137,0.911,0.95,1.554,1.826,1.447c0.877-0.105,1.477-0.93,1.332-1.854c-0.141-0.925-0.966-1.587-1.861-1.453
				C316.954,96.79,316.409,97.61,316.545,98.52z M308.649,105.48c-1.255-0.649,0.47-2.128,1.013-2.494
				c0.77-0.514,3.078-1.641,2.214-2.527c-0.662-0.635-0.362-0.204-3.755,1.217c-2.835,1.193-3.963,1.331-5.345,0.127
				c-1.876-1.623,0.352-5.142,2.097-3.713c2.172,1.787,3.573,0.322,3.573,0.322c2.118-1.41,2.869-3.41,2.905-5.135
				c0.056-1.733-0.723-3.09-1.393-3.287c-0.669-0.184-1.417,0.13-1.733,0.444c-1.031,1.019-1.266,1.834-0.955,4.016
				c0.05,0.48-0.531,1.455-2.097,0.497c-0.551-0.337-1.49-0.198-1.794,0.147c-0.43,0.493-0.103,1.896-1.235,2.365
				c-1.865,0.777-2.432-0.598-3.077-0.497c-1.176,0.192-1.046,1.117-0.642,1.48c0.595,0.516,2.141,0.877,2.334,1.562
				c0.815,2.692-3.413,0.509-2.409,2.808c0.569,1.306,2.119,2.241,3.81,2.932c1.639,0.714,3.403,1.189,4.442,1.417
				C308.487,107.579,310.604,106.512,308.649,105.48z"/>
			<path d="M281.8,87.804c-1.546-0.417-3.027-1.586-3.963-2.943c-0.474-0.674-0.823-1.384-1.004-2.043
				c-0.188-0.651-0.231-1.231-0.031-1.688c0.787-1.855,4.47-3.461,5.852-5.938c0.773-1.395,0.547-3.027-1.486-3.77
				c-0.91-0.323-2.056,0.274-3.873,0.754c-1.819,0.488-4.286,0.833-7.697,0.034c-5.381-1.11-8.205-3.073-9.802-4.479
				c-1.227-1.117-2.175-2.276-2.992-3.333c-0.818-1.055-1.433-2.107-1.879-3.148c-0.445-1.041-0.723-2.071-0.864-3.081
				c-0.145-1.004-0.178-1.951-0.086-2.895c0.348-3.755,2.476-7.063,4.346-9.257c1.364-1.611,2.521-2.525,3.435-2.508
				c0.457,0.008,0.854,0.249,1.18,0.749c0.317,0.513,0.553,1.303,0.707,2.37c0.715,5.351,3.06-0.002,2.21-2.586
				c-1.713-5.109,2.356-2.8,2.963-3.852c2.475-4.536,5.511,1.087,6.57-0.053c0.601-0.671,3.539-2.005,2.492,3.688
				c-0.661,3.419,1.052,3.524,1.649,2.83c0.716-0.833,1.183-4.216,3.825-3.015c1.356,0.687,0.118,4.248-0.418,5.464
				c-0.169,0.389-0.904,1.303-0.568,1.602c1.044,0.928,1.873,1.838,2.527,2.719c0.646,0.891,1.08,1.794,1.41,2.632
				c0.649,1.688,0.79,3.217,0.78,4.551c0,2.652-0.677,4.614,0.954,5.568l-0.236,1.126c-1.668,0.654-3.035,2.107-3.614,3.784
				c-0.595,1.698-0.334,3.538,1.136,5.232c0.066,0.068,0.129,0.132,0.192,0.199c-4.164-0.121-8.199,5.356-4.957,9.091
				c0.486,0.563,1.04,0.953,1.608,1.23L281.8,87.804z M269.738,43.953c-0.228,0.853,0.297,1.748,1.18,2.01
				c0.876,0.271,1.77-0.161,2.021-1.02c0.258-0.867-0.275-1.786-1.176-2.049C270.866,42.621,269.966,43.1,269.738,43.953z
				 M278.44,53.683c-0.101-0.692-1.339-1.649-3.059-1.842c-1.714-0.205-3.8,0.258-5.493,2.159c0,0-1.646,1.182-0.18,3.582
				c1.17,1.927-2.627,3.639-3.972,1.557c-1-1.536-0.705-2.633,0.874-5.273c1.882-3.16,2.266-2.803,1.73-3.547
				c-0.75-0.988-2.194,1.147-2.81,1.835c-0.438,0.487-2.144,1.988-2.612,0.655c-0.749-2.078-2.103-0.131-1.95,1.792
				c0.077,1.062,0.307,2.868,0.778,4.598c0.447,1.77,1.156,3.435,2.37,4.18c2.135,1.314,0.565-3.175,3.117-1.993
				c0.652,0.286,0.788,1.874,1.217,2.532c0.304,0.451,1.202,0.709,1.557-0.429c0.191-0.624-1.091-1.377-0.061-3.115
				c0.623-1.056,1.967-0.536,2.516-0.893c0.384-0.252,0.653-1.163,0.396-1.755c-0.73-1.682,0.324-2.13,0.786-2.006
				c2.117,0.613,2.957,0.496,4.11-0.383C278.112,55.067,278.529,54.372,278.44,53.683z M274.685,62.623
				c0.692,0.26,1.486-0.082,1.769-0.774c0.281-0.69-0.065-1.476-0.766-1.744c-0.7-0.269-1.484,0.086-1.756,0.783
				C273.66,61.587,273.993,62.361,274.685,62.623z M283.728,62.129c0.506-2.692-0.65-4.885-0.65-4.885
				c-1.564-2.371-3.356,0.345-2.424,0.746c0.923,0.419,1.277,1.023,0.926,1.674c-0.399,0.733-1.581,0.236-1.954,0.854
				c-0.328,0.541-0.472,1.027,0.187,1.611c0.957,0.852,0.969,2.843-0.491,3.117c-0.691,0.134-1.418-0.917-2.868-0.08
				c-0.724,0.425-1.32,2.807-2.223,2.569c-0.608-0.151-0.781-1.034-1.366-1.298c-0.348-0.167-0.514-0.275-1.077-0.24
				c-2.205,0.141-1.777,2.114-1.01,2.382C278.407,71.594,283.054,65.926,283.728,62.129z"/>
			<path d="M311.777,181.176c0.012-1.057,0.007-2.457,0.46-4.175c0.438-1.722,1.276-3.763,2.523-6.166
				c1.665-3.101,3.587-4.742,5.074-5.792c1.523-1.057,2.757-1.535,3.107-2.434c0.79-2.025-0.282-3.265-1.839-3.593
				c-2.789-0.573-6.385,1.157-8.326,0.542c-0.957-0.294-1.777-1.611-2.162-3.199c-0.382-1.59-0.318-3.462,0.335-4.898
				c0.659-0.162,1.289-0.417,1.854-0.76c2.119,0.796,4.824,0.391,6.508-1.138c2.208-0.833,3.887-2.899,3.321-5.872
				c-0.091-0.382-0.215-0.73-0.358-1.055c-0.076-0.223-0.164-0.436-0.261-0.636l4.243-1.53c0,0,0.463,0.453,1.152,1.339
				c0.72,0.879,1.52,2.226,2.346,3.974c0.796,1.752,1.655,3.906,1.99,6.444c0.372,2.53,0.542,5.399-0.105,8.512
				c-0.354,1.862,1.462,2.665,3.504,4.422c0.988,0.88,2.001,2,2.815,3.608c0.406,0.803,0.759,1.729,1.027,2.803
				c0.133,0.537,0.249,1.112,0.332,1.727c0.059,0.615,0.09,1.27,0.09,1.968c-0.001,0.449,1.172,0.492,1.574,0.619
				c1.266,0.392,4.752,1.788,4.362,3.263c-0.743,2.786-3.653,0.922-4.754,0.917c-0.923-0.004-1.881,1.363,1.085,3.099
				c4.954,2.933,1.986,4.277,1.102,4.293c-0.781,0.036-0.545,1.533-0.783,2.899c-0.283,1.362-1.002,2.577-3.52,2.029
				c-1.191-0.23-2.191,4.345-4.857-0.28c-1.359-2.327-6.918-4.056-3.409-0.021c2.778,3.275,1.238,4.487-2.965,4.431
				c-2.873-0.018-6.766-0.567-9.889-2.771c-1.562-1.098-2.933-2.599-3.883-4.634c-0.238-0.51-0.449-1.052-0.631-1.631
				c-0.212-0.582-0.397-1.2-0.551-1.857C311.983,184.308,311.803,182.835,311.777,181.176z M317.475,155.013
				c0.209-0.894-0.384-1.76-1.326-1.92c-0.94-0.162-1.875,0.428-2.089,1.302c-0.215,0.874,0.377,1.714,1.321,1.895
				C316.327,156.47,317.264,155.906,317.475,155.013z M327.32,158.844c1.358-0.167,1.426-3.57,0.789-6.886
				c-0.285-1.661-0.935-3.261-1.614-4.42c-0.695-1.158-1.496-1.859-2.328-1.717c-0.661,0.113-1.02,1.024-1.123,2.302
				c-0.12,1.281,0.092,2.918,0.332,4.552C323.923,155.923,325.35,159.089,327.32,158.844z M320.785,173.115
				c0.38-0.403,0.4-0.599,0.486-0.97c0.145-0.614-0.376-1.324-0.092-1.882c0.422-0.838,2.599,0.271,3.396,0.002
				c1.589-0.548,1.284-1.786,1.844-2.222c1.172-0.923,2.654,0.39,2.656,1.671c0.001,0.881,0.459,1.09,1.082,1.196
				c0.709,0.123,1.121-1.097,1.935-0.918c0.73,0.161,0.914,0.826,0.66,1.797c-0.257,0.967,2.931,1.392,2.145-1.344
				c0,0-0.874-2.311-3.225-3.692c-3.271-1.979-10.636-2.174-13.382,5.564C318.039,173.074,319.252,174.689,320.785,173.115z
				 M327.946,174.156c0.282-0.705-0.125-1.479-0.839-1.718c-0.718-0.24-1.483,0.136-1.714,0.829c-0.252,0.693,0.094,1.452,0.8,1.705
				C326.895,175.222,327.681,174.862,327.946,174.156z M335.454,187.019c-0.354,0.84,0.008,1.824,0.811,2.211
				c0.804,0.388,1.741,0.019,2.097-0.838c0.355-0.855-0.007-1.861-0.812-2.232C336.746,185.787,335.808,186.179,335.454,187.019z
				 M325.118,188.59c-0.738-1.229,1.496-1.538,2.15-1.551c0.925-0.014,3.47,0.291,3.201-0.925c-0.199-0.892-0.189-0.367-3.804-1.014
				c-3.024-0.534-4.037-1.029-4.515-2.789c-0.306-1.202,0.433-2.217,1.351-2.688c0.927-0.467,2.047-0.377,2.429,0.705
				c0.472,1.339,1.121,1.894,1.732,2.111c0.597,0.219,1.092,0.097,1.092,0.097c5.172-0.035,6.755-5.186,5.819-6.255
				c-0.456-0.518-1.252-0.659-1.689-0.567c-1.424,0.296-2.07,0.854-3.021,2.856c-0.203,0.431-1.249,0.934-2.021-0.721
				c-0.272-0.582-1.132-0.974-1.575-0.849c-0.632,0.181-1.138,1.537-2.342,1.316c-1.984-0.359-1.692-1.821-2.285-2.086
				c-1.084-0.477-1.489,0.371-1.354,0.896c0.193,0.755,1.301,1.897,1.134,2.579c-0.682,2.706-3.186-1.426-3.511,1.053
				c-0.522,2.775,3.089,6.594,4.568,8.131C323.809,190.262,326.168,190.513,325.118,188.59z"/>
			<path d="M312.101,159.193c-1.129-1.178-1.677-2.969-1.728-4.613c-0.014-1.649,0.273-3.132,1.119-3.688
				c1.673-1.136,5.629-0.495,8.136-1.832c1.41-0.756,2.111-2.253,0.816-3.979c-1.148-1.5-5.328-0.515-10.158-5.582
				c-1.997-1.919-3.309-3.658-4.174-5.197c-0.896-1.527-1.433-2.823-1.679-3.853c-0.75-3.241-1.004-5.838-0.598-8.087
				c0.413-2.251,1.238-4.05,2.407-5.538c2.329-2.98,5.905-4.616,8.663-5.453c4.008-1.246,5.913-0.557,4.162,3.38
				c-2.303,4.898,2.565,1.653,3.255-0.985c0.688-2.604,1.485-2.874,2.375-2.575c0.855,0.307,1.66,1.224,2.198,0.931
				c4.532-2.484,4.027,3.898,5.533,3.51c0.432-0.106,1.456-0.072,1.895,0.533c0.409,0.612,0.225,1.808-1.767,3.91
				c-2.41,2.526-1.031,3.541-0.154,3.278c1.056-0.315,3.275-2.913,4.846-0.473c0.842,1.289-2.186,3.639-3.278,4.369
				c-0.353,0.237-1.466,0.609-1.346,1.043c1.552,5.386,0.064,8.665-1.389,10.891c-1.467,2.241-2.996,3.504-2.185,5.198l-0.812,0.821
				c-3.501-0.679-7.759,1.872-6.941,6.243c0.019,0.093,0.036,0.18,0.054,0.27c-1.759-1.182-4.236-1.144-6.136-0.222
				c-1.871,0.923-3.317,2.714-2.983,5.188c0.1,0.736,0.339,1.364,0.674,1.904L312.101,159.193z M325.629,115.795
				c-0.653,0.596-0.698,1.633-0.101,2.332c0.598,0.698,1.619,0.803,2.277,0.222c0.659-0.581,0.698-1.64,0.095-2.353
				C327.297,115.283,326.282,115.198,325.629,115.795z M327.72,128.679c0.692-1.322-2.502-5.743-7.377-4.346
				c0,0-2.02,0.105-2.096,2.922c-0.065,2.257-4.176,1.648-4.171-0.836c-0.002-1.835,0.838-2.601,3.594-3.973
				c3.283-1.643,3.428-1.14,3.347-2.044c-0.114-1.231-2.467-0.218-3.359,0.031c-0.633,0.174-2.875,0.516-2.545-0.86
				c0.502-2.158-1.688-1.249-2.605,0.455c-0.506,0.936-1.312,2.589-1.831,4.294c-0.532,1.714-0.883,3.516-0.259,4.795
				c1.074,2.264,2.198-2.37,3.694,0.007c0.358,0.604-0.306,1.988-0.315,2.779c0.009,0.543,0.62,1.247,1.534,0.48
				c0.494-0.422-0.15-1.755,1.618-2.651c1.102-0.556,1.978,0.599,2.616,0.6c0.459-0.004,1.179-0.626,1.286-1.265
				c0.232-1.791,1.39-1.608,1.719-1.257c1.499,1.644,2.223,2.013,3.681,1.892C326.693,129.668,327.42,129.307,327.72,128.679z
				 M319.717,134.184c0.437,0.593,1.289,0.734,1.901,0.304c0.61-0.429,0.748-1.278,0.307-1.883c-0.44-0.606-1.29-0.73-1.896-0.29
				C319.421,132.757,319.279,133.589,319.717,134.184z M327.599,138.648c0.945-0.998,1.475-2.116,1.767-2.984
				c0.293-0.869,0.342-1.483,0.342-1.483c-0.098-2.826-3.021-1.52-2.475-0.673c0.548,0.852,0.58,1.536-0.089,1.901
				c-0.721,0.398-1.473-0.652-2.124-0.332c-0.567,0.278-0.923,0.602-0.698,1.453c0.338,1.235-0.737,2.92-2.107,2.362
				c-0.652-0.262-0.688-1.541-2.356-1.619c-0.838-0.033-2.634,1.651-3.26,0.963c-0.407-0.461-0.16-1.275-0.482-1.82
				c-0.199-0.329-0.279-0.509-0.771-0.785c-1.923-1.074-2.638,0.82-2.142,1.462c1.301,1.635,2.542,2.761,3.92,3.439
				c1.358,0.683,2.758,0.941,4.092,0.899C323.884,141.351,326.285,140.042,327.599,138.648z"/>
		</g>
	</g>
</g>
<circle cx="175.433" cy="174.999" r="138.055"/>
<g>
	<path fill="#FFFFFF" d="M138.433,199.127c0-22.339-13.672-33.668-25.009-33.668c-0.447,0-0.447-0.528,0-0.528
		c11.225,0,23.673-11.505,23.673-28.952c0-24.419-15.445-36.438-34.456-36.438c-25.574,0-35.576,15.682-35.576,33.47
		c0,13.604,6.448,22.859,14.343,22.859c7.669,0,14.228-8.208,14.228-21.466c0-12.9-5.442-20.582-13.117-20.582
		c-6.451,0-10.664,6.465-11.786,14.133c-0.105,0.519-0.555,0.354-0.555-0.166c0.449-9.079,7.006-19.716,15.228-19.716
		c9.225,0,17.009,11.509,17.009,28.782c0,14.645-3.217,22.5-9.895,27.031c-2.44,0-4.94-0.408-7.831-0.408
		c-2.116,0-3.841,0.06-3.841,2.672c0,2.614,1.972,2.33,4.089,2.33c2.889,0,5.031-0.069,7.583-0.069
		c6.121,3.674,11.12,12.391,11.12,31.233c0,18.836-6.897,30.515-16.562,30.515c-6.561,0-17.344-5.929-18.454-18.835
		c-0.115-1.042,0.439-1.391,0.665-0.344c1.108,6.273,5.561,13.774,12.784,13.774c7.004,0,13.343-7.501,13.343-21.619
		c0-13.598-6.568-22.498-15.008-22.498c-7.781,0-14.898,9.409-14.898,23.89c0,13.953,5.67,31.74,33.232,31.74
		C122.307,236.268,138.433,225.81,138.433,199.127z"/>
	<path fill="#FFFFFF" d="M285.356,193.528c0-29.535-17.833-41.36-33.116-41.36c-10.742,0-21.605,8.174-27.475,18.425
		c1.451-5.387,2.447-12.165,2.881-19.119c1.33-12.69,6.979-15.463,10.638-15.463c10.745,0,16.731,16.157,29.355,16.157
		c10.306,0,16.396-10.592,16.396-25.725c0-7.808-1.667-17.199-5.098-26.227l-1.331,0.678c1.553,8.181-1.441,11.817-5.648,11.817
		c-7.641,0-14.186-10.421-25.7-10.421c-8.09,0-16.058,6.426-19.045,17.732c-0.115,0.518-0.341,0.341-0.341,0.176
		c0-6.783-1.108-10.093-1.771-12.521c-0.551-1.92-1.445-2.617-2.214-2.617c-0.996,0-1.775,1.4-1.224,4.015
		c0.443,1.9,0.895,2.604,1.665,6.939c1.222,6.617,2.328,15.124,2.328,24.52c0,12.5-1.548,24.161-6.21,39.262l1.665,1.581
		c3.874-6.789,7.649-8.695,12.736-8.695c9.31,0,18.718,11.459,18.718,28.154c0,17.544-7.3,27.459-16.827,27.459
		c-7.31,0-16.292-5.745-16.847-19.469c-0.109-1.566,0.78-1.396,0.78-0.175c0.443,8.511,5.757,16.856,12.954,16.856
		c8.202,0,13.958-9.389,13.958-21.206c0-12.15-5.533-23.104-15.053-23.104c-9.425,0-14.954,12.161-14.954,24.321
		c0,24.337,18.049,30.414,32.452,30.414C270.846,235.934,285.356,221.682,285.356,193.528z"/>
	<path fill="#FFFFFF" d="M172.714,196.123v-22.614c0-8.191,1.767-12.354,4.544-12.354c4.103,0,4.655,9.043,4.655,34.969
		c0,30.27-0.445,36.705-4.54,36.705C173.159,232.828,172.714,226.572,172.714,196.123z M177.373,235.974
		c24.395,0,36.476-13.76,36.476-42.115c0-26.968-13.521-39.482-27.054-39.482c-7.092,0-11.642,2.772-14.081,7.999
		c0.22-34.97,3.112-55.504,17.854-55.504c5.88,0,15.849,4.693,18.514,18.962c0.12,0.694-0.444,0.872-0.555,0.17
		c-2.21-9.74-7.094-14.26-11.75-14.26c-5.983,0-11.525,6.958-11.525,19.493c0,13.031,6.54,19.832,13.746,19.832
		c7.535,0,12.748-7.489,12.748-20.526c0-13.922-8.539-28.544-28.048-28.544c-31.609,0-43.469,33.236-43.469,71.153
		C140.229,212.822,154.419,235.974,177.373,235.974z"/>
</g>
<g>
	<path fill="#FFFFFF" d="M92.343,247.305h1.593l9.495,12.079v-12.079h1.658v15.072h-1.356l-9.732-12.359v12.359h-1.658V247.305z"/>
	<path fill="#FFFFFF" d="M114.93,247.197h1.593l6.869,15.18h-1.83l-1.766-3.983h-8.204l-1.787,3.983h-1.744L114.93,247.197z
		 M119.128,256.865l-3.424-7.688l-3.445,7.688H119.128z"/>
	<path fill="#FFFFFF" d="M126.513,247.305h1.701v15.072h-1.701V247.305z"/>
	<path fill="#FFFFFF" d="M132.628,247.305h1.701v13.5h8.483v1.572h-10.184V247.305z"/>
	<path fill="#FFFFFF" d="M152.416,247.305h1.701v13.5h8.483v1.572h-10.184V247.305z"/>
	<path fill="#FFFFFF" d="M171.32,247.197h1.593l6.868,15.18h-1.83l-1.766-3.983h-8.203l-1.787,3.983h-1.744L171.32,247.197z
		 M175.519,256.865l-3.424-7.688l-3.445,7.688H175.519z"/>
	<path fill="#FFFFFF" d="M189.147,262.636c-1.091,0-2.096-0.201-3.014-0.604c-0.919-0.401-1.716-0.95-2.391-1.646
		s-1.202-1.519-1.582-2.466c-0.381-0.947-0.571-1.959-0.571-3.036v-0.043c0-1.062,0.19-2.067,0.571-3.015
		c0.38-0.947,0.907-1.776,1.582-2.486c0.675-0.711,1.479-1.271,2.412-1.68c0.933-0.409,1.951-0.613,3.057-0.613
		c0.689,0,1.311,0.057,1.863,0.172c0.552,0.115,1.065,0.276,1.539,0.484s0.911,0.46,1.313,0.754
		c0.401,0.294,0.789,0.621,1.163,0.979l-1.163,1.249c-0.646-0.604-1.339-1.099-2.078-1.486s-1.625-0.581-2.659-0.581
		c-0.832,0-1.604,0.158-2.314,0.474c-0.71,0.316-1.328,0.754-1.852,1.313c-0.524,0.56-0.934,1.217-1.228,1.971
		c-0.294,0.753-0.441,1.561-0.441,2.422v0.043c0,0.876,0.147,1.69,0.441,2.444c0.294,0.753,0.703,1.41,1.228,1.97
		c0.523,0.56,1.142,1.001,1.852,1.324c0.711,0.323,1.482,0.484,2.314,0.484c1.034,0,1.924-0.19,2.67-0.57
		c0.747-0.381,1.479-0.915,2.196-1.604l1.12,1.099c-0.388,0.401-0.793,0.764-1.217,1.087s-0.879,0.6-1.367,0.829
		s-1.012,0.409-1.571,0.538C190.461,262.57,189.837,262.636,189.147,262.636z"/>
	<path fill="#FFFFFF" d="M209.904,261.021c-0.646,0.503-1.363,0.897-2.153,1.185c-0.789,0.286-1.657,0.431-2.604,0.431
		c-1.149,0-2.193-0.209-3.134-0.625c-0.939-0.416-1.747-0.979-2.422-1.69c-0.675-0.71-1.195-1.535-1.561-2.476
		c-0.366-0.94-0.55-1.928-0.55-2.961v-0.043c0-1.033,0.187-2.024,0.561-2.972c0.373-0.947,0.896-1.776,1.571-2.486
		c0.675-0.711,1.485-1.277,2.434-1.701c0.947-0.423,1.994-0.635,3.144-0.635c1.147,0,2.192,0.208,3.133,0.624
		c0.939,0.416,1.747,0.979,2.422,1.69c0.675,0.71,1.195,1.536,1.562,2.476c0.365,0.94,0.549,1.928,0.549,2.961
		c0.014,0.015,0.014,0.029,0,0.043c0,0.947-0.154,1.855-0.463,2.724c-0.309,0.869-0.758,1.647-1.346,2.336l2.002,1.658l-1.162,1.271
		L209.904,261.021z M205.189,261.063c0.674,0,1.306-0.101,1.895-0.302c0.588-0.2,1.112-0.48,1.571-0.84l-2.799-2.39l1.142-1.271
		l2.777,2.52c0.416-0.531,0.739-1.127,0.969-1.787s0.345-1.363,0.345-2.11v-0.043c0-0.861-0.147-1.669-0.441-2.422
		c-0.295-0.754-0.707-1.411-1.238-1.971s-1.159-1.005-1.884-1.335c-0.726-0.33-1.519-0.495-2.379-0.495
		c-0.861,0-1.655,0.161-2.38,0.484s-1.346,0.765-1.862,1.324s-0.923,1.213-1.217,1.96c-0.294,0.746-0.441,1.55-0.441,2.411v0.043
		c0,0.861,0.147,1.669,0.441,2.422c0.294,0.754,0.707,1.411,1.238,1.971s1.159,1.005,1.884,1.335S204.328,261.063,205.189,261.063z"
		/>
	<path fill="#FFFFFF" d="M222.479,262.614c-0.933,0-1.783-0.141-2.551-0.42c-0.769-0.28-1.429-0.696-1.981-1.249
		s-0.979-1.238-1.281-2.057c-0.301-0.818-0.452-1.758-0.452-2.82v-8.764h1.701v8.656c0,1.636,0.405,2.893,1.217,3.768
		c0.811,0.876,1.941,1.313,3.391,1.313c1.393,0,2.498-0.416,3.316-1.249c0.818-0.832,1.228-2.074,1.228-3.725v-8.764h1.7v8.635
		c0,1.105-0.15,2.074-0.452,2.906c-0.301,0.833-0.729,1.528-1.28,2.089c-0.553,0.56-1.214,0.979-1.981,1.26
		C224.284,262.474,223.426,262.614,222.479,262.614z"/>
	<path fill="#FFFFFF" d="M232.792,247.305h10.895v1.529h-9.193v5.188h8.225v1.529h-8.225v5.297h9.302v1.528h-11.003V247.305z"/>
	<path fill="#FFFFFF" d="M247.218,247.305h6.48c0.934,0,1.763,0.133,2.487,0.398s1.324,0.635,1.798,1.108
		c0.373,0.374,0.66,0.812,0.861,1.313c0.201,0.503,0.302,1.056,0.302,1.658v0.043c0,0.632-0.101,1.195-0.302,1.69
		s-0.484,0.926-0.851,1.292s-0.801,0.667-1.303,0.904c-0.503,0.237-1.048,0.405-1.637,0.506l4.63,6.158h-2.089l-4.371-5.856h-0.043
		h-4.263v5.856h-1.701V247.305z M253.56,254.991c0.562,0,1.079-0.071,1.554-0.215c0.476-0.144,0.886-0.348,1.231-0.613
		c0.345-0.266,0.614-0.589,0.809-0.97c0.194-0.38,0.292-0.814,0.292-1.303v-0.043c0-0.933-0.339-1.661-1.015-2.186
		c-0.677-0.523-1.626-0.785-2.85-0.785h-4.662v6.114H253.56z"/>
</g>
</svg>
